SplineFontDB: 3.2
FontName: KAAlmouziosChronos-Regular
FullName: KA Almouzios Chronos Regular
FamilyName: KA Almouzios Chronos
Weight: Book
Copyright: SIL OPEN FONT LICENSE Version 1.1
Version: 1.000
ItalicAngle: 0
UnderlinePosition: -100
UnderlineWidth: 50
Ascent: 800
Descent: 200
InvalidEm: 0
sfntRevision: 0x00010000
LayerCount: 2
Layer: 0 1 "Back" 1
Layer: 1 1 "Fore" 0
XUID: [1021 596 -667042339 9817361]
StyleMap: 0x0040
FSType: 8
OS2Version: 3
OS2_WeightWidthSlopeOnly: 0
OS2_UseTypoMetrics: 0
CreationTime: 1488603987
ModificationTime: 1728388558
PfmFamily: 81
TTFWeight: 400
TTFWidth: 5
LineGap: 0
VLineGap: 0
Panose: 0 0 5 0 0 0 0 0 0 0
OS2TypoAscent: 800
OS2TypoAOffset: 0
OS2TypoDescent: -200
OS2TypoDOffset: 0
OS2TypoLinegap: 200
OS2WinAscent: 1000
OS2WinAOffset: 0
OS2WinDescent: 200
OS2WinDOffset: 0
HheadAscent: 1000
HheadAOffset: 0
HheadDescent: -200
HheadDOffset: 0
OS2SubXSize: 650
OS2SubYSize: 600
OS2SubXOff: 0
OS2SubYOff: 75
OS2SupXSize: 650
OS2SupYSize: 600
OS2SupXOff: 0
OS2SupYOff: 350
OS2StrikeYSize: 50
OS2StrikeYPos: 300
OS2CapHeight: 700
OS2XHeight: 500
OS2Vendor: 'UKWN'
OS2CodePages: 00000001.00000000
OS2UnicodeRanges: 00000001.00000000.00000000.00000000
DEI: 91125
ShortTable: maxp 16
  1
  0
  47
  87
  10
  87
  2
  1
  2
  30
  6
  0
  100
  0
  1
  1
EndShort
LangName: 1033 "" "" "" "1.000;UKWN;KAAlmouziosChronos-Regular" "" "Version 1.000" "" "" "" "Trevor Bullock" "" "" "" "This Font Software is licensed under the SIL Open Font License, Version 1.1. This license is available with a FAQ at: http://scripts.sil.org/OFL" "http://scripts.sil.org/OFL"
Encoding: UnicodeBmp
Compacted: 1
UnicodeInterp: none
NameList: AGL For New Fonts
DisplaySize: -128
AntiAlias: 1
FitToEm: 1
WinInfo: 0 14 6
BeginChars: 65537 47

StartChar: .notdef
Encoding: 65536 -1 0
Width: 626
VWidth: 1392
GlyphClass: 1
Flags: W
LayerCount: 2
Back
SplineSet
410 -200 m 5,0,-1
 93 -200 l 5,1,-1
 93 800 l 5,2,-1
 410 800 l 5,3,-1
 410 -200 l 5,0,-1
168 733 m 5,4,-1
 168 700 l 5,5,-1
 233 700 l 5,6,-1
 233 663 l 5,7,-1
 167 663 l 5,8,-1
 167 630 l 5,9,-1
 333 630 l 5,10,-1
 333 663 l 5,11,-1
 267 663 l 5,12,-1
 267 700 l 5,13,-1
 333 700 l 5,14,-1
 333 733 l 5,15,-1
 168 733 l 5,4,-1
167 604 m 5,16,-1
 167 500 l 5,17,-1
 333 500 l 5,18,-1
 333 534 l 5,19,-1
 267 534 l 5,20,-1
 267 604 l 5,21,-1
 167 604 l 5,16,-1
233 534 m 5,22,-1
 200 534 l 5,23,-1
 200 570 l 5,24,-1
 233 570 l 5,25,-1
 233 534 l 5,22,-1
167 473 m 5,26,-1
 167 440 l 5,27,-1
 233 440 l 5,28,-1
 233 403 l 5,29,-1
 167 403 l 5,30,-1
 167 370 l 5,31,-1
 267 370 l 5,32,-1
 267 440 l 5,33,-1
 333 440 l 5,34,-1
 333 473 l 5,35,-1
 167 473 l 5,26,-1
300 413 m 5,36,-1
 300 347 l 5,37,-1
 167 347 l 5,38,-1
 167 313 l 5,39,-1
 333 313 l 5,40,-1
 333 413 l 5,41,-1
 300 413 l 5,36,-1
233 291 m 5,42,-1
 233 235 l 5,43,-1
 267 235 l 5,44,-1
 267 258 l 5,45,-1
 300 258 l 5,46,-1
 300 211 l 5,47,-1
 200 211 l 5,48,-1
 200 291 l 5,49,-1
 167 291 l 5,50,-1
 167 178 l 5,51,-1
 333 178 l 5,52,-1
 333 291 l 5,53,-1
 233 291 l 5,42,-1
167 118 m 5,54,-1
 167 5 l 5,55,-1
 333 5 l 5,56,-1
 333 118 l 5,57,-1
 167 118 l 5,54,-1
300 38 m 5,58,-1
 200 38 l 5,59,-1
 200 85 l 5,60,-1
 300 85 l 5,61,-1
 300 38 l 5,58,-1
167 -18 m 5,62,-1
 167 -51 l 5,63,-1
 237 -51 l 5,64,-1
 167 -98 l 5,65,-1
 167 -131 l 5,66,-1
 333 -131 l 5,67,-1
 333 -98 l 5,68,-1
 231 -98 l 5,69,-1
 301 -51 l 5,70,-1
 333 -51 l 5,71,-1
 333 -18 l 5,72,-1
 167 -18 l 5,62,-1
EndSplineSet
Fore
SplineSet
522 0 m 5,0,-1
 154.280273438 0 l 5,1,-1
 154.280273438 1160 l 5,2,-1
 522 1160 l 5,3,-1
 522 0 l 5,0,-1
241.280273438 1082.28027344 m 5,4,-1
 241.280273438 1044 l 5,5,-1
 316.6796875 1044 l 5,6,-1
 316.6796875 1001.08007812 l 5,7,-1
 240.120117188 1001.08007812 l 5,8,-1
 240.120117188 962.799804688 l 5,9,-1
 432.6796875 962.799804688 l 5,10,-1
 432.6796875 1001.08007812 l 5,11,-1
 356.120117188 1001.08007812 l 5,12,-1
 356.120117188 1044 l 5,13,-1
 432.6796875 1044 l 5,14,-1
 432.6796875 1082.28027344 l 5,15,-1
 241.280273438 1082.28027344 l 5,4,-1
240.120117188 932.639648438 m 5,16,-1
 240.120117188 812 l 5,17,-1
 432.6796875 812 l 5,18,-1
 432.6796875 851.440429688 l 5,19,-1
 356.120117188 851.440429688 l 5,20,-1
 356.120117188 932.639648438 l 5,21,-1
 240.120117188 932.639648438 l 5,16,-1
316.6796875 851.440429688 m 5,22,-1
 278.400390625 851.440429688 l 5,23,-1
 278.400390625 893.200195312 l 5,24,-1
 316.6796875 893.200195312 l 5,25,-1
 316.6796875 851.440429688 l 5,22,-1
240.120117188 780.6796875 m 5,26,-1
 240.120117188 742.400390625 l 5,27,-1
 316.6796875 742.400390625 l 5,28,-1
 316.6796875 699.48046875 l 5,29,-1
 240.120117188 699.48046875 l 5,30,-1
 240.120117188 661.200195312 l 5,31,-1
 356.120117188 661.200195312 l 5,32,-1
 356.120117188 742.400390625 l 5,33,-1
 432.6796875 742.400390625 l 5,34,-1
 432.6796875 780.6796875 l 5,35,-1
 240.120117188 780.6796875 l 5,26,-1
394.400390625 711.080078125 m 5,36,-1
 394.400390625 634.51953125 l 5,37,-1
 240.120117188 634.51953125 l 5,38,-1
 240.120117188 595.080078125 l 5,39,-1
 432.6796875 595.080078125 l 5,40,-1
 432.6796875 711.080078125 l 5,41,-1
 394.400390625 711.080078125 l 5,36,-1
316.6796875 569.559570312 m 5,42,-1
 316.6796875 504.599609375 l 5,43,-1
 356.120117188 504.599609375 l 5,44,-1
 356.120117188 531.280273438 l 5,45,-1
 394.400390625 531.280273438 l 5,46,-1
 394.400390625 476.759765625 l 5,47,-1
 278.400390625 476.759765625 l 5,48,-1
 278.400390625 569.559570312 l 5,49,-1
 240.120117188 569.559570312 l 5,50,-1
 240.120117188 438.48046875 l 5,51,-1
 432.6796875 438.48046875 l 5,52,-1
 432.6796875 569.559570312 l 5,53,-1
 316.6796875 569.559570312 l 5,42,-1
240.120117188 368.879882812 m 5,54,-1
 240.120117188 237.799804688 l 5,55,-1
 432.6796875 237.799804688 l 5,56,-1
 432.6796875 368.879882812 l 5,57,-1
 240.120117188 368.879882812 l 5,54,-1
394.400390625 276.080078125 m 5,58,-1
 278.400390625 276.080078125 l 5,59,-1
 278.400390625 330.599609375 l 5,60,-1
 394.400390625 330.599609375 l 5,61,-1
 394.400390625 276.080078125 l 5,58,-1
240.120117188 211.120117188 m 5,62,-1
 240.120117188 172.83984375 l 5,63,-1
 321.3203125 172.83984375 l 5,64,-1
 240.120117188 118.3203125 l 5,65,-1
 240.120117188 80.0400390625 l 5,66,-1
 432.6796875 80.0400390625 l 5,67,-1
 432.6796875 118.3203125 l 5,68,-1
 314.360351562 118.3203125 l 5,69,-1
 395.559570312 172.83984375 l 5,70,-1
 432.6796875 172.83984375 l 5,71,-1
 432.6796875 211.120117188 l 5,72,-1
 240.120117188 211.120117188 l 5,62,-1
EndSplineSet
EndChar

StartChar: A
Encoding: 65 65 1
Width: 46
VWidth: 1392
GlyphClass: 1
Flags: W
LayerCount: 2
Back
SplineSet
-624 208 m 0,1,2
 -657 208 -657 208 -710 264 c 0,3,4
 -734 292 -734 292 -745 306 c 0,5,6
 -761 325 -761 325 -761 329 c 0,7,8
 -761 340 -761 340 -605 340 c 0,9,10
 -535 340 -535 340 -520 339 c 1,11,12
 -558 365 -558 365 -605 426 c 0,13,14
 -621 445 -621 445 -621 449 c 0,15,16
 -621 454 -621 454 -586 457 c 0,17,18
 -552 460 -552 460 -510 460 c 0,19,20
 -411 460 -411 460 -359 458 c 0,21,22
 -321 455 -321 455 -323 447 c 0,23,24
 -328 433 -328 433 -451 427 c 2,25,-1
 -494 425 l 1,26,-1
 -466 392 l 1,27,28
 -431 357 -431 357 -431 336 c 0,29,30
 -431 333 -431 333 -433 327 c 0,31,32
 -438 318 -438 318 -458 317 c 0,33,34
 -473 315 -473 315 -546 310 c 2,35,-1
 -634 305 l 1,36,-1
 -606 272 l 2,37,38
 -586 247 -586 247 -586 238 c 0,39,40
 -586 230 -586 230 -591 225 c 0,41,0
 -605 208 -605 208 -624 208 c 0,1,2
-885 272 m 0,43,44
 -885 275 -885 275 -882 279 c 256,45,46
 -879 283 -879 283 -871 304 c 2,47,-1
 -868 317 l 2,48,49
 -867 323 -867 323 -861 324 c 0,50,51
 -857 325 -857 325 -831 325 c 0,52,53
 -802 325 -802 325 -798 324 c 0,54,55
 -793 322 -793 322 -796 318 c 0,56,57
 -802 309 -802 309 -808 286 c 0,58,59
 -809 284 -809 284 -810 281.5 c 128,-1,60
 -811 279 -811 279 -812 275 c 0,61,62
 -814 267 -814 267 -822 265 c 0,63,64
 -832 263 -832 263 -850 263 c 0,65,42
 -885 263 -885 263 -885 272 c 0,43,44
EndSplineSet
Fore
SplineSet
-677.440429688 473.280273438 m 0,1,2
 -728.48297986 473.280273438 -728.48297986 473.280273438 -817.799804688 586.959960938 c 0,3,4
 -836.360351562 609 -836.360351562 609 -836.360351562 613.639648438 c 0,5,6
 -836.360351562 626.400390625 -836.360351562 626.400390625 -655.400390625 626.400390625 c 0,7,8
 -574.200195312 626.400390625 -574.200195312 626.400390625 -556.799804688 625.240234375 c 1,9,10
 -600.879882812 655.400390625 -600.879882812 655.400390625 -655.400390625 726.16015625 c 0,11,12
 -673.959960938 748.200195312 -673.959960938 748.200195312 -673.959960938 753.419921875 c 128,-1,13
 -673.959960938 758.639648438 -673.959960938 758.639648438 -633.939941406 762.119628906 c 128,-1,14
 -593.919921875 765.599609375 -593.919921875 765.599609375 -512.140136719 765.599609375 c 128,-1,15
 -430.360351562 765.599609375 -430.360351562 765.599609375 -370.040039062 763.280273438 c 0,16,17
 -325.959960938 759.799804688 -325.959960938 759.799804688 -328.280273438 750.51953125 c 0,18,19
 -334.080078125 734.280273438 -334.080078125 734.280273438 -476.759765625 727.3203125 c 2,20,-1
 -526.639648438 725 l 1,21,-1
 -494.16015625 686.719726562 l 1,22,23
 -453.559570312 646.120117188 -453.559570312 646.120117188 -453.559570312 621.759765625 c 0,24,25
 -453.559570312 618.280273438 -453.559570312 618.280273438 -457.619628906 609.580078125 c 128,-1,26
 -461.6796875 600.879882812 -461.6796875 600.879882812 -481.979980469 599.140136719 c 128,-1,27
 -502.280273438 597.400390625 -502.280273438 597.400390625 -586.959960938 591.599609375 c 2,28,-1
 -689.040039062 585.799804688 l 1,29,-1
 -656.559570312 547.51953125 l 1,30,31
 -633.360351562 518.51953125 -633.360351562 518.51953125 -633.360351562 508.659667969 c 128,-1,32
 -633.360351562 498.799804688 -633.360351562 498.799804688 -639.16015625 493 c 0,33,0
 -655.400390625 473.280273438 -655.400390625 473.280273438 -677.440429688 473.280273438 c 0,1,2
-980.200195312 547.51953125 m 0,34,35
 -980.200195312 551 -980.200195312 551 -976.719726562 555.639648438 c 256,36,37
 -973.240234375 560.280273438 -973.240234375 560.280273438 -963.959960938 584.639648438 c 1,38,-1
 -960.48046875 599.719726562 l 2,39,40
 -959.3203125 606.6796875 -959.3203125 606.6796875 -953.520019531 607.83984375 c 128,-1,41
 -947.719726562 609 -947.719726562 609 -915.819824219 609 c 128,-1,42
 -883.919921875 609 -883.919921875 609 -878.700195312 607.259765625 c 128,-1,43
 -873.48046875 605.51953125 -873.48046875 605.51953125 -878.700195312 597.979980469 c 128,-1,44
 -883.919921875 590.440429688 -883.919921875 590.440429688 -887.979980469 575.940429688 c 128,-1,45
 -892.040039062 561.440429688 -892.040039062 561.440429688 -893.200195312 558.540039062 c 128,-1,46
 -894.360351562 555.639648438 -894.360351562 555.639648438 -896.100097656 548.6796875 c 0,47,48
 -898.99959311 537.080078125 -898.99959311 537.080078125 -939.599609375 537.080078125 c 128,-1,49
 -980.200195312 537.080078125 -980.200195312 537.080078125 -980.200195312 547.51953125 c 0,34,35
EndSplineSet
EndChar

StartChar: B
Encoding: 66 66 2
Width: 46
VWidth: 1392
GlyphClass: 1
Flags: W
LayerCount: 2
Back
SplineSet
-1110 538 m 0,1,2
 -1110 541 -1110 541 -1107 545 c 256,3,4
 -1104 549 -1104 549 -1096 570 c 2,5,-1
 -1091 583 l 2,6,7
 -1090 589 -1090 589 -1084 590 c 0,8,9
 -1080 591 -1080 591 -1056 591 c 0,10,11
 -1027 591 -1027 591 -1023 590 c 0,12,13
 -1018 588 -1018 588 -1021 584 c 0,14,15
 -1027 575 -1027 575 -1033 552 c 2,16,-1
 -1037 540 l 2,17,18
 -1040 532 -1040 532 -1047 531 c 0,19,20
 -1057 529 -1057 529 -1075 529 c 0,21,0
 -1110 529 -1110 529 -1110 538 c 0,1,2
-833 458 m 0,23,24
 -866 458 -866 458 -919 514 c 0,25,26
 -943 542 -943 542 -954 556 c 0,27,28
 -970 575 -970 575 -970 579 c 0,29,30
 -970 590 -970 590 -794 590 c 0,31,32
 -704 590 -704 590 -656 588 c 0,33,34
 -620 585 -620 585 -622 577 c 0,35,36
 -626 565 -626 565 -735 560 c 2,37,-1
 -843 555 l 1,38,-1
 -815 522 l 2,39,40
 -795 497 -795 497 -795 488 c 0,41,42
 -795 480 -795 480 -800 475 c 0,43,22
 -814 458 -814 458 -833 458 c 0,23,24
EndSplineSet
Fore
SplineSet
-1241.20019531 856.080078125 m 0,1,2
 -1241.20019531 859.559570312 -1241.20019531 859.559570312 -1237.71972656 864.200195312 c 256,3,4
 -1234.24023438 868.83984375 -1234.24023438 868.83984375 -1224.95996094 893.200195312 c 2,5,-1
 -1219.16015625 908.280273438 l 1,6,7
 -1218 915.240234375 -1218 915.240234375 -1212.20019531 916.399902344 c 128,-1,8
 -1206.40039062 917.559570312 -1206.40039062 917.559570312 -1175.66015625 917.559570312 c 128,-1,9
 -1144.91992188 917.559570312 -1144.91992188 917.559570312 -1139.70019531 915.819824219 c 128,-1,10
 -1134.48046875 914.080078125 -1134.48046875 914.080078125 -1139.70019531 906.540039062 c 128,-1,11
 -1144.91992188 899 -1144.91992188 899 -1151.87988281 872.3203125 c 1,12,-1
 -1156.51953125 858.400390625 l 2,13,14
 -1160 849.120117188 -1160 849.120117188 -1169.85986328 847.379882812 c 128,-1,15
 -1179.71972656 845.639648438 -1179.71972656 845.639648438 -1210.45996094 845.639648438 c 128,-1,0
 -1241.20019531 845.639648438 -1241.20019531 845.639648438 -1241.20019531 856.080078125 c 0,1,2
-919.879882812 763.280273438 m 0,16,17
 -970.923409548 763.280273438 -970.923409548 763.280273438 -1060.24023438 876.959960938 c 0,18,19
 -1078.79980469 899 -1078.79980469 899 -1078.79980469 903.639648438 c 0,20,21
 -1078.79980469 916.400390625 -1078.79980469 916.400390625 -924.520019531 916.400390625 c 128,-1,22
 -770.240234375 916.400390625 -770.240234375 916.400390625 -714.559570312 914.080078125 c 0,23,24
 -672.799804688 910.599609375 -672.799804688 910.599609375 -675.120117188 901.3203125 c 0,25,26
 -679.759765625 887.400390625 -679.759765625 887.400390625 -806.200195312 881.599609375 c 2,27,-1
 -931.48046875 875.799804688 l 1,28,-1
 -899 837.51953125 l 1,29,30
 -875.799804688 808.51953125 -875.799804688 808.51953125 -875.799804688 798.659667969 c 128,-1,31
 -875.799804688 788.799804688 -875.799804688 788.799804688 -881.599609375 783 c 0,32,33
 -897.83984375 763.280273438 -897.83984375 763.280273438 -919.879882812 763.280273438 c 0,16,17
EndSplineSet
EndChar

StartChar: C
Encoding: 67 67 3
Width: 46
VWidth: 1392
GlyphClass: 1
Flags: W
LayerCount: 2
Back
SplineSet
-860 -142 m 0,1,2
 -860 -140 -860 -140 -857 -135 c 0,3,4
 -854 -131 -854 -131 -846 -110 c 2,5,-1
 -841 -97 l 2,6,7
 -840 -91 -840 -91 -834 -90 c 0,8,9
 -830 -89 -830 -89 -806 -89 c 0,10,11
 -777 -89 -777 -89 -773 -90 c 0,12,13
 -768 -92 -768 -92 -771 -96 c 0,14,15
 -777 -105 -777 -105 -783 -128 c 2,16,-1
 -787 -140 l 2,17,18
 -790 -148 -790 -148 -797 -149 c 0,19,20
 -807 -151 -807 -151 -825 -151 c 0,21,0
 -860 -151 -860 -151 -860 -142 c 0,1,2
-583 -222 m 0,23,24
 -616 -222 -616 -222 -669 -166 c 0,25,26
 -693 -138 -693 -138 -704 -124 c 0,27,28
 -720 -105 -720 -105 -720 -101 c 0,29,30
 -720 -90 -720 -90 -544 -90 c 0,31,32
 -454 -90 -454 -90 -406 -92 c 0,33,34
 -370 -95 -370 -95 -372 -103 c 0,35,36
 -376 -115 -376 -115 -485 -120 c 2,37,-1
 -593 -125 l 1,38,-1
 -565 -158 l 2,39,40
 -545 -183 -545 -183 -545 -192 c 0,41,42
 -545 -200 -545 -200 -550 -205 c 0,43,22
 -564 -222 -564 -222 -583 -222 c 0,23,24
EndSplineSet
Fore
SplineSet
-951.200195312 67.2802734375 m 0,1,2
 -951.200195312 69.599609375 -951.200195312 69.599609375 -947.720214844 74.8198242188 c 128,-1,3
 -944.240234375 80.0400390625 -944.240234375 80.0400390625 -934.959960938 104.400390625 c 2,4,-1
 -929.16015625 119.48046875 l 1,5,6
 -928 126.440429688 -928 126.440429688 -922.200195312 127.600097656 c 128,-1,7
 -916.400390625 128.759765625 -916.400390625 128.759765625 -885.66015625 128.759765625 c 128,-1,8
 -854.919921875 128.759765625 -854.919921875 128.759765625 -849.700195312 127.020019531 c 128,-1,9
 -844.48046875 125.280273438 -844.48046875 125.280273438 -849.700195312 117.740234375 c 128,-1,10
 -854.919921875 110.200195312 -854.919921875 110.200195312 -861.879882812 83.51953125 c 1,11,-1
 -866.51953125 69.599609375 l 2,12,13
 -870 60.3203125 -870 60.3203125 -879.859863281 58.580078125 c 128,-1,14
 -889.719726562 56.83984375 -889.719726562 56.83984375 -920.459960938 56.83984375 c 128,-1,0
 -951.200195312 56.83984375 -951.200195312 56.83984375 -951.200195312 67.2802734375 c 0,1,2
-629.879882812 -25.51953125 m 0,15,16
 -680.923409548 -25.51953125 -680.923409548 -25.51953125 -770.240234375 88.16015625 c 0,17,18
 -788.799804688 110.200195312 -788.799804688 110.200195312 -788.799804688 114.83984375 c 0,19,20
 -788.799804688 127.599609375 -788.799804688 127.599609375 -634.520019531 127.599609375 c 128,-1,21
 -480.240234375 127.599609375 -480.240234375 127.599609375 -424.559570312 125.280273438 c 0,22,23
 -382.799804688 121.799804688 -382.799804688 121.799804688 -385.120117188 112.51953125 c 0,24,25
 -389.759765625 98.599609375 -389.759765625 98.599609375 -516.200195312 92.7998046875 c 2,26,-1
 -641.48046875 87 l 1,27,-1
 -609 48.7197265625 l 1,28,29
 -585.799804688 19.7197265625 -585.799804688 19.7197265625 -585.799804688 9.85986328125 c 128,-1,30
 -585.799804688 0 -585.799804688 0 -591.599609375 -5.7998046875 c 0,31,32
 -607.83984375 -25.51953125 -607.83984375 -25.51953125 -629.879882812 -25.51953125 c 0,15,16
EndSplineSet
EndChar

StartChar: F
Encoding: 70 70 4
Width: 46
VWidth: 1392
GlyphClass: 1
Flags: W
LayerCount: 2
Back
Refer: 1 65 N 1 0 0 1 0 0 0
Fore
SplineSet
-677.440429688 473.280273438 m 0,0,1
 -728.48297986 473.280273438 -728.48297986 473.280273438 -817.799804688 586.959960938 c 0,2,3
 -836.360351562 609 -836.360351562 609 -836.360351562 613.639648438 c 0,4,5
 -836.360351562 626.400390625 -836.360351562 626.400390625 -655.400390625 626.400390625 c 0,6,7
 -574.200195312 626.400390625 -574.200195312 626.400390625 -556.799804688 625.240234375 c 1,8,9
 -600.879882812 655.400390625 -600.879882812 655.400390625 -655.400390625 726.16015625 c 0,10,11
 -673.959960938 748.200195312 -673.959960938 748.200195312 -673.959960938 753.419921875 c 128,-1,12
 -673.959960938 758.639648438 -673.959960938 758.639648438 -633.939941406 762.119628906 c 128,-1,13
 -593.919921875 765.599609375 -593.919921875 765.599609375 -512.140136719 765.599609375 c 128,-1,14
 -430.360351562 765.599609375 -430.360351562 765.599609375 -370.040039062 763.280273438 c 0,15,16
 -325.959960938 759.799804688 -325.959960938 759.799804688 -328.280273438 750.51953125 c 0,17,18
 -334.080078125 734.280273438 -334.080078125 734.280273438 -476.759765625 727.3203125 c 2,19,-1
 -526.639648438 725 l 1,20,-1
 -494.16015625 686.719726562 l 1,21,22
 -453.559570312 646.120117188 -453.559570312 646.120117188 -453.559570312 621.759765625 c 0,23,24
 -453.559570312 618.280273438 -453.559570312 618.280273438 -457.619628906 609.580078125 c 128,-1,25
 -461.6796875 600.879882812 -461.6796875 600.879882812 -481.979980469 599.140136719 c 128,-1,26
 -502.280273438 597.400390625 -502.280273438 597.400390625 -586.959960938 591.599609375 c 2,27,-1
 -689.040039062 585.799804688 l 1,28,-1
 -656.559570312 547.51953125 l 1,29,30
 -633.360351562 518.51953125 -633.360351562 518.51953125 -633.360351562 508.659667969 c 128,-1,31
 -633.360351562 498.799804688 -633.360351562 498.799804688 -639.16015625 493 c 0,32,33
 -655.400390625 473.280273438 -655.400390625 473.280273438 -677.440429688 473.280273438 c 0,0,1
-980.200195312 547.51953125 m 0,34,35
 -980.200195312 551 -980.200195312 551 -976.719726562 555.639648438 c 256,36,37
 -973.240234375 560.280273438 -973.240234375 560.280273438 -963.959960938 584.639648438 c 1,38,-1
 -960.48046875 599.719726562 l 2,39,40
 -959.3203125 606.6796875 -959.3203125 606.6796875 -953.520019531 607.83984375 c 128,-1,41
 -947.719726562 609 -947.719726562 609 -915.819824219 609 c 128,-1,42
 -883.919921875 609 -883.919921875 609 -878.700195312 607.259765625 c 128,-1,43
 -873.48046875 605.51953125 -873.48046875 605.51953125 -878.700195312 597.979980469 c 128,-1,44
 -883.919921875 590.440429688 -883.919921875 590.440429688 -887.979980469 575.940429688 c 128,-1,45
 -892.040039062 561.440429688 -892.040039062 561.440429688 -893.200195312 558.540039062 c 128,-1,46
 -894.360351562 555.639648438 -894.360351562 555.639648438 -896.100097656 548.6796875 c 0,47,48
 -898.99959311 537.080078125 -898.99959311 537.080078125 -939.599609375 537.080078125 c 128,-1,49
 -980.200195312 537.080078125 -980.200195312 537.080078125 -980.200195312 547.51953125 c 0,34,35
EndSplineSet
EndChar

StartChar: M
Encoding: 77 77 5
Width: 46
VWidth: 1392
GlyphClass: 1
Flags: W
LayerCount: 2
Back
SplineSet
-590 538 m 0,1,2
 -590 541 -590 541 -587 545 c 256,3,4
 -584 549 -584 549 -576 570 c 2,5,-1
 -571 583 l 2,6,7
 -570 589 -570 589 -564 590 c 0,8,9
 -560 591 -560 591 -536 591 c 0,10,11
 -507 591 -507 591 -503 590 c 0,12,13
 -498 588 -498 588 -501 584 c 0,14,15
 -507 575 -507 575 -513 552 c 2,16,-1
 -517 540 l 2,17,18
 -520 532 -520 532 -527 531 c 0,19,20
 -537 529 -537 529 -555 529 c 0,21,0
 -590 529 -590 529 -590 538 c 0,1,2
-313 458 m 0,23,24
 -346 458 -346 458 -399 514 c 0,25,26
 -423 542 -423 542 -434 556 c 0,27,28
 -450 575 -450 575 -450 579 c 0,29,30
 -450 590 -450 590 -274 590 c 0,31,32
 -184 590 -184 590 -136 588 c 0,33,34
 -100 585 -100 585 -102 577 c 0,35,36
 -106 565 -106 565 -215 560 c 2,37,-1
 -323 555 l 1,38,-1
 -295 522 l 2,39,40
 -275 497 -275 497 -275 488 c 0,41,42
 -275 480 -275 480 -280 475 c 0,43,22
 -294 458 -294 458 -313 458 c 0,23,24
EndSplineSet
Fore
SplineSet
-638 856.080078125 m 0,1,2
 -638 859.559570312 -638 859.559570312 -634.51953125 864.200195312 c 256,3,4
 -631.040039062 868.83984375 -631.040039062 868.83984375 -621.759765625 893.200195312 c 2,5,-1
 -615.959960938 908.280273438 l 1,6,7
 -614.799804688 915.240234375 -614.799804688 915.240234375 -609 916.399902344 c 128,-1,8
 -603.200195312 917.559570312 -603.200195312 917.559570312 -572.459960938 917.559570312 c 128,-1,9
 -541.719726562 917.559570312 -541.719726562 917.559570312 -536.5 915.819824219 c 128,-1,10
 -531.280273438 914.080078125 -531.280273438 914.080078125 -536.5 906.540039062 c 128,-1,11
 -541.719726562 899 -541.719726562 899 -548.6796875 872.3203125 c 1,12,-1
 -553.3203125 858.400390625 l 2,13,14
 -556.799804688 849.120117188 -556.799804688 849.120117188 -566.659667969 847.379882812 c 128,-1,15
 -576.51953125 845.639648438 -576.51953125 845.639648438 -607.259765625 845.639648438 c 128,-1,0
 -638 845.639648438 -638 845.639648438 -638 856.080078125 c 0,1,2
-316.6796875 763.280273438 m 0,16,17
 -367.723214235 763.280273438 -367.723214235 763.280273438 -457.040039062 876.959960938 c 0,18,19
 -475.599609375 899 -475.599609375 899 -475.599609375 903.639648438 c 0,20,21
 -475.599609375 916.400390625 -475.599609375 916.400390625 -321.319824219 916.400390625 c 128,-1,22
 -167.040039062 916.400390625 -167.040039062 916.400390625 -111.360351562 914.080078125 c 0,23,24
 -69.599609375 910.599609375 -69.599609375 910.599609375 -71.919921875 901.3203125 c 0,25,26
 -76.5595703125 887.400390625 -76.5595703125 887.400390625 -203 881.599609375 c 2,27,-1
 -328.280273438 875.799804688 l 1,28,-1
 -295.799804688 837.51953125 l 1,29,30
 -272.599609375 808.51953125 -272.599609375 808.51953125 -272.599609375 798.659667969 c 128,-1,31
 -272.599609375 788.799804688 -272.599609375 788.799804688 -278.400390625 783 c 0,32,33
 -294.639648438 763.280273438 -294.639648438 763.280273438 -316.6796875 763.280273438 c 0,16,17
EndSplineSet
EndChar

StartChar: N
Encoding: 78 78 6
Width: 46
VWidth: 1392
GlyphClass: 1
Flags: W
LayerCount: 2
Back
SplineSet
-478 -212 m 0,1,2
 -478 -210 -478 -210 -475 -205 c 0,3,4
 -472 -201 -472 -201 -464 -180 c 2,5,-1
 -459 -167 l 2,6,7
 -458 -161 -458 -161 -452 -160 c 0,8,9
 -448 -159 -448 -159 -424 -159 c 0,10,11
 -395 -159 -395 -159 -391 -160 c 0,12,13
 -386 -162 -386 -162 -389 -166 c 0,14,15
 -395 -175 -395 -175 -401 -198 c 2,16,-1
 -405 -210 l 2,17,18
 -408 -218 -408 -218 -415 -219 c 0,19,20
 -425 -221 -425 -221 -443 -221 c 0,21,0
 -478 -221 -478 -221 -478 -212 c 0,1,2
-201 -292 m 0,23,24
 -234 -292 -234 -292 -287 -236 c 0,25,26
 -311 -208 -311 -208 -322 -194 c 0,27,28
 -338 -175 -338 -175 -338 -171 c 0,29,30
 -338 -160 -338 -160 -162 -160 c 0,31,32
 -72 -160 -72 -160 -24 -162 c 0,33,34
 12 -165 12 -165 10 -173 c 0,35,36
 6 -185 6 -185 -103 -190 c 2,37,-1
 -211 -195 l 1,38,-1
 -183 -228 l 2,39,40
 -163 -253 -163 -253 -163 -262 c 0,41,42
 -163 -270 -163 -270 -168 -275 c 0,43,22
 -182 -292 -182 -292 -201 -292 c 0,23,24
EndSplineSet
Fore
SplineSet
-508.080078125 -13.919921875 m 0,1,2
 -508.080078125 -11.599609375 -508.080078125 -11.599609375 -504.600097656 -6.3798828125 c 128,-1,3
 -501.120117188 -1.16015625 -501.120117188 -1.16015625 -491.83984375 23.2001953125 c 2,4,-1
 -486.040039062 38.2802734375 l 1,5,6
 -484.879882812 45.240234375 -484.879882812 45.240234375 -479.080078125 46.3999023438 c 128,-1,7
 -473.280273438 47.5595703125 -473.280273438 47.5595703125 -442.540039062 47.5595703125 c 128,-1,8
 -411.799804688 47.5595703125 -411.799804688 47.5595703125 -406.580078125 45.8198242188 c 128,-1,9
 -401.360351562 44.080078125 -401.360351562 44.080078125 -406.580078125 36.5400390625 c 128,-1,10
 -411.799804688 29 -411.799804688 29 -418.759765625 2.3203125 c 1,11,-1
 -423.400390625 -11.599609375 l 2,12,13
 -426.879882812 -20.8798828125 -426.879882812 -20.8798828125 -436.739746094 -22.6201171875 c 128,-1,14
 -446.599609375 -24.3603515625 -446.599609375 -24.3603515625 -477.33984375 -24.3603515625 c 128,-1,0
 -508.080078125 -24.3603515625 -508.080078125 -24.3603515625 -508.080078125 -13.919921875 c 0,1,2
-186.759765625 -106.719726562 m 0,15,16
 -237.80329236 -106.719726562 -237.80329236 -106.719726562 -327.120117188 6.9599609375 c 0,17,18
 -345.6796875 29 -345.6796875 29 -345.6796875 33.6396484375 c 0,19,20
 -345.6796875 46.400390625 -345.6796875 46.400390625 -191.399902344 46.400390625 c 128,-1,21
 -37.1201171875 46.400390625 -37.1201171875 46.400390625 18.5595703125 44.080078125 c 0,22,23
 60.3203125 40.599609375 60.3203125 40.599609375 58 31.3203125 c 0,24,25
 53.3603515625 17.400390625 53.3603515625 17.400390625 -73.080078125 11.599609375 c 2,26,-1
 -198.360351562 5.7998046875 l 1,27,-1
 -165.879882812 -32.48046875 l 1,28,29
 -142.6796875 -61.48046875 -142.6796875 -61.48046875 -142.6796875 -71.3403320312 c 128,-1,30
 -142.6796875 -81.2001953125 -142.6796875 -81.2001953125 -148.48046875 -87 c 0,31,32
 -164.719726562 -106.719726562 -164.719726562 -106.719726562 -186.759765625 -106.719726562 c 0,15,16
EndSplineSet
EndChar

StartChar: Q
Encoding: 81 81 7
Width: 46
VWidth: 1392
GlyphClass: 1
Flags: W
LayerCount: 2
Back
SplineSet
-624 208 m 0,1,2
 -657 208 -657 208 -710 264 c 0,3,4
 -734 292 -734 292 -745 306 c 0,5,6
 -761 325 -761 325 -761 329 c 0,7,8
 -761 340 -761 340 -605 340 c 0,9,10
 -555 340 -555 340 -540 339 c 1,11,12
 -567 358 -567 358 -604 394 c 128,-1,13
 -641 430 -641 430 -641 439 c 0,14,15
 -641 444 -641 444 -606 447 c 0,16,17
 -572 450 -572 450 -530 450 c 0,18,19
 -440 450 -440 450 -422 449 c 1,20,21
 -438 462 -438 462 -474.5 498 c 128,-1,22
 -511 534 -511 534 -511 539 c 0,23,24
 -511 545 -511 545 -484 548 c 0,25,26
 -448 550 -448 550 -375 550 c 0,27,28
 -285 550 -285 550 -237 548 c 0,29,30
 -203 545 -203 545 -203 538 c 256,31,32
 -203 531 -203 531 -231 528 c 0,33,34
 -246 525 -246 525 -316 520 c 2,35,-1
 -384 515 l 1,36,-1
 -356 482 l 2,37,38
 -336 459 -336 459 -336 446 c 0,39,40
 -336 440 -336 440 -342 434 c 0,41,42
 -351 424 -351 424 -365 422 c 0,43,44
 -380 419 -380 419 -415 419 c 2,45,-1
 -471 417 l 1,46,-1
 -514 415 l 1,47,-1
 -486 382 l 2,48,49
 -460 356 -460 356 -455 347 c 0,50,51
 -451 342 -451 342 -451 334 c 0,52,53
 -451 321 -451 321 -473 318 c 0,54,55
 -491 315 -491 315 -535 312 c 2,56,-1
 -634 305 l 1,57,-1
 -606 272 l 2,58,59
 -586 247 -586 247 -586 238 c 0,60,61
 -586 230 -586 230 -591 225 c 0,62,0
 -605 208 -605 208 -624 208 c 0,1,2
-895 278 m 0,64,65
 -895 281 -895 281 -892 285 c 256,66,67
 -889 289 -889 289 -881 310 c 2,68,-1
 -878 323 l 2,69,70
 -877 329 -877 329 -871 330 c 0,71,72
 -867 331 -867 331 -841 331 c 0,73,74
 -812 331 -812 331 -808 330 c 0,75,76
 -803 328 -803 328 -806 324 c 0,77,78
 -812 315 -812 315 -818 292 c 0,79,80
 -819 290 -819 290 -820 287.5 c 128,-1,81
 -821 285 -821 285 -822 281 c 0,82,83
 -824 273 -824 273 -832 271 c 0,84,85
 -842 269 -842 269 -860 269 c 0,86,63
 -895 269 -895 269 -895 278 c 0,64,65
EndSplineSet
Fore
SplineSet
-677.440429688 473.280273438 m 0,1,2
 -728.48297986 473.280273438 -728.48297986 473.280273438 -817.799804688 586.959960938 c 0,3,4
 -836.360351562 609 -836.360351562 609 -836.360351562 613.639648438 c 0,5,6
 -836.360351562 626.400390625 -836.360351562 626.400390625 -655.400390625 626.400390625 c 0,7,8
 -597.400390625 626.400390625 -597.400390625 626.400390625 -580 625.240234375 c 1,9,10
 -611.3203125 647.280273438 -611.3203125 647.280273438 -654.240234375 689.040039062 c 128,-1,11
 -697.16015625 730.799804688 -697.16015625 730.799804688 -697.16015625 741.240234375 c 0,12,13
 -697.16015625 747.040039062 -697.16015625 747.040039062 -657.140136719 750.520019531 c 128,-1,14
 -617.120117188 754 -617.120117188 754 -540.560058594 754 c 128,-1,15
 -464 754 -464 754 -443.120117188 752.83984375 c 1,16,17
 -461.6796875 767.919921875 -461.6796875 767.919921875 -504.01953125 809.6796875 c 128,-1,18
 -546.360351562 851.440429688 -546.360351562 851.440429688 -546.360351562 857.8203125 c 128,-1,19
 -546.360351562 864.200195312 -546.360351562 864.200195312 -515.040039062 867.6796875 c 0,20,21
 -473.280273438 870 -473.280273438 870 -378.740234375 870 c 128,-1,22
 -284.200195312 870 -284.200195312 870 -228.51953125 867.6796875 c 0,23,24
 -189.080078125 864.200195312 -189.080078125 864.200195312 -189.080078125 856.080078125 c 256,25,26
 -189.080078125 847.959960938 -189.080078125 847.959960938 -214.020019531 844.479980469 c 128,-1,27
 -238.959960938 841 -238.959960938 841 -320.16015625 835.200195312 c 2,28,-1
 -399.040039062 829.400390625 l 1,29,-1
 -366.559570312 791.120117188 l 2,30,31
 -343.360351562 764.440429688 -343.360351562 764.440429688 -343.360351562 753.420410156 c 128,-1,32
 -343.360351562 742.400390625 -343.360351562 742.400390625 -352.060058594 733.120117188 c 128,-1,33
 -360.759765625 723.83984375 -360.759765625 723.83984375 -377.580078125 720.939941406 c 128,-1,34
 -394.400390625 718.040039062 -394.400390625 718.040039062 -435 718.040039062 c 1,35,-1
 -499.959960938 715.719726562 l 1,36,-1
 -549.83984375 713.400390625 l 1,37,-1
 -517.360351562 675.120117188 l 1,38,39
 -487.200195312 644.959960938 -487.200195312 644.959960938 -481.979980469 636.83984375 c 128,-1,40
 -476.759765625 628.719726562 -476.759765625 628.719726562 -476.759765625 619.440429688 c 0,41,42
 -476.759765625 604.360351562 -476.759765625 604.360351562 -499.959960938 600.880371094 c 128,-1,43
 -523.16015625 597.400390625 -523.16015625 597.400390625 -574.200195312 593.919921875 c 2,44,-1
 -689.040039062 585.799804688 l 1,45,-1
 -656.559570312 547.51953125 l 1,46,47
 -633.360351562 518.51953125 -633.360351562 518.51953125 -633.360351562 508.659667969 c 128,-1,48
 -633.360351562 498.799804688 -633.360351562 498.799804688 -639.16015625 493 c 0,49,0
 -655.400390625 473.280273438 -655.400390625 473.280273438 -677.440429688 473.280273438 c 0,1,2
-991.799804688 554.48046875 m 0,50,51
 -991.799804688 557.959960938 -991.799804688 557.959960938 -988.3203125 562.599609375 c 256,52,53
 -984.83984375 567.240234375 -984.83984375 567.240234375 -975.559570312 591.599609375 c 1,54,-1
 -972.080078125 606.6796875 l 2,55,56
 -970.919921875 613.639648438 -970.919921875 613.639648438 -965.120117188 614.799804688 c 128,-1,57
 -959.3203125 615.959960938 -959.3203125 615.959960938 -927.419921875 615.959960938 c 128,-1,58
 -895.51953125 615.959960938 -895.51953125 615.959960938 -890.299804688 614.220214844 c 128,-1,59
 -885.080078125 612.48046875 -885.080078125 612.48046875 -890.299804688 604.940429688 c 128,-1,60
 -895.51953125 597.400390625 -895.51953125 597.400390625 -899.579589844 582.900390625 c 128,-1,61
 -903.639648438 568.400390625 -903.639648438 568.400390625 -904.799804688 565.5 c 128,-1,62
 -905.959960938 562.599609375 -905.959960938 562.599609375 -907.700195312 555.639648438 c 0,63,64
 -910.600504546 544.040039062 -910.600504546 544.040039062 -951.200195312 544.040039062 c 128,-1,65
 -991.799804688 544.040039062 -991.799804688 544.040039062 -991.799804688 554.48046875 c 0,50,51
EndSplineSet
EndChar

StartChar: R
Encoding: 82 82 8
Width: 46
VWidth: 1392
GlyphClass: 1
Flags: W
LayerCount: 2
Back
Refer: 7 81 N 1 0 0 1 0 0 0
Fore
SplineSet
-677.440429688 473.280273438 m 0,0,1
 -728.48297986 473.280273438 -728.48297986 473.280273438 -817.799804688 586.959960938 c 0,2,3
 -836.360351562 609 -836.360351562 609 -836.360351562 613.639648438 c 0,4,5
 -836.360351562 626.400390625 -836.360351562 626.400390625 -655.400390625 626.400390625 c 0,6,7
 -597.400390625 626.400390625 -597.400390625 626.400390625 -580 625.240234375 c 1,8,9
 -611.3203125 647.280273438 -611.3203125 647.280273438 -654.240234375 689.040039062 c 128,-1,10
 -697.16015625 730.799804688 -697.16015625 730.799804688 -697.16015625 741.240234375 c 0,11,12
 -697.16015625 747.040039062 -697.16015625 747.040039062 -657.140136719 750.520019531 c 128,-1,13
 -617.120117188 754 -617.120117188 754 -540.560058594 754 c 128,-1,14
 -464 754 -464 754 -443.120117188 752.83984375 c 1,15,16
 -461.6796875 767.919921875 -461.6796875 767.919921875 -504.01953125 809.6796875 c 128,-1,17
 -546.360351562 851.440429688 -546.360351562 851.440429688 -546.360351562 857.8203125 c 128,-1,18
 -546.360351562 864.200195312 -546.360351562 864.200195312 -515.040039062 867.6796875 c 0,19,20
 -473.280273438 870 -473.280273438 870 -378.740234375 870 c 128,-1,21
 -284.200195312 870 -284.200195312 870 -228.51953125 867.6796875 c 0,22,23
 -189.080078125 864.200195312 -189.080078125 864.200195312 -189.080078125 856.080078125 c 256,24,25
 -189.080078125 847.959960938 -189.080078125 847.959960938 -214.020019531 844.479980469 c 128,-1,26
 -238.959960938 841 -238.959960938 841 -320.16015625 835.200195312 c 2,27,-1
 -399.040039062 829.400390625 l 1,28,-1
 -366.559570312 791.120117188 l 2,29,30
 -343.360351562 764.440429688 -343.360351562 764.440429688 -343.360351562 753.420410156 c 128,-1,31
 -343.360351562 742.400390625 -343.360351562 742.400390625 -352.060058594 733.120117188 c 128,-1,32
 -360.759765625 723.83984375 -360.759765625 723.83984375 -377.580078125 720.939941406 c 128,-1,33
 -394.400390625 718.040039062 -394.400390625 718.040039062 -435 718.040039062 c 1,34,-1
 -499.959960938 715.719726562 l 1,35,-1
 -549.83984375 713.400390625 l 1,36,-1
 -517.360351562 675.120117188 l 1,37,38
 -487.200195312 644.959960938 -487.200195312 644.959960938 -481.979980469 636.83984375 c 128,-1,39
 -476.759765625 628.719726562 -476.759765625 628.719726562 -476.759765625 619.440429688 c 0,40,41
 -476.759765625 604.360351562 -476.759765625 604.360351562 -499.959960938 600.880371094 c 128,-1,42
 -523.16015625 597.400390625 -523.16015625 597.400390625 -574.200195312 593.919921875 c 2,43,-1
 -689.040039062 585.799804688 l 1,44,-1
 -656.559570312 547.51953125 l 1,45,46
 -633.360351562 518.51953125 -633.360351562 518.51953125 -633.360351562 508.659667969 c 128,-1,47
 -633.360351562 498.799804688 -633.360351562 498.799804688 -639.16015625 493 c 0,48,49
 -655.400390625 473.280273438 -655.400390625 473.280273438 -677.440429688 473.280273438 c 0,0,1
-991.799804688 554.48046875 m 0,50,51
 -991.799804688 557.959960938 -991.799804688 557.959960938 -988.3203125 562.599609375 c 256,52,53
 -984.83984375 567.240234375 -984.83984375 567.240234375 -975.559570312 591.599609375 c 1,54,-1
 -972.080078125 606.6796875 l 2,55,56
 -970.919921875 613.639648438 -970.919921875 613.639648438 -965.120117188 614.799804688 c 128,-1,57
 -959.3203125 615.959960938 -959.3203125 615.959960938 -927.419921875 615.959960938 c 128,-1,58
 -895.51953125 615.959960938 -895.51953125 615.959960938 -890.299804688 614.220214844 c 128,-1,59
 -885.080078125 612.48046875 -885.080078125 612.48046875 -890.299804688 604.940429688 c 128,-1,60
 -895.51953125 597.400390625 -895.51953125 597.400390625 -899.579589844 582.900390625 c 128,-1,61
 -903.639648438 568.400390625 -903.639648438 568.400390625 -904.799804688 565.5 c 128,-1,62
 -905.959960938 562.599609375 -905.959960938 562.599609375 -907.700195312 555.639648438 c 0,63,64
 -910.600504546 544.040039062 -910.600504546 544.040039062 -951.200195312 544.040039062 c 128,-1,65
 -991.799804688 544.040039062 -991.799804688 544.040039062 -991.799804688 554.48046875 c 0,50,51
EndSplineSet
EndChar

StartChar: S
Encoding: 83 83 9
Width: 46
VWidth: 1392
GlyphClass: 1
Flags: W
LayerCount: 2
Back
Refer: 1 65 N 1 0 0 1 0 230 2
Fore
SplineSet
-677.440429688 740.080078125 m 0,0,1
 -728.48297986 740.080078125 -728.48297986 740.080078125 -817.799804688 853.759765625 c 0,2,3
 -836.360351562 875.799804688 -836.360351562 875.799804688 -836.360351562 880.439453125 c 0,4,5
 -836.360351562 893.200195312 -836.360351562 893.200195312 -655.400390625 893.200195312 c 0,6,7
 -574.200195312 893.200195312 -574.200195312 893.200195312 -556.799804688 892.040039062 c 1,8,9
 -600.879882812 922.200195312 -600.879882812 922.200195312 -655.400390625 992.959960938 c 0,10,11
 -673.959960938 1015 -673.959960938 1015 -673.959960938 1020.21972656 c 128,-1,12
 -673.959960938 1025.43945312 -673.959960938 1025.43945312 -633.939941406 1028.91943359 c 128,-1,13
 -593.919921875 1032.39941406 -593.919921875 1032.39941406 -512.140136719 1032.39941406 c 128,-1,14
 -430.360351562 1032.39941406 -430.360351562 1032.39941406 -370.040039062 1030.08007812 c 0,15,16
 -325.959960938 1026.59960938 -325.959960938 1026.59960938 -328.280273438 1017.31933594 c 0,17,18
 -334.080078125 1001.08007812 -334.080078125 1001.08007812 -476.759765625 994.120117188 c 2,19,-1
 -526.639648438 991.799804688 l 1,20,-1
 -494.16015625 953.51953125 l 1,21,22
 -453.559570312 912.919921875 -453.559570312 912.919921875 -453.559570312 888.559570312 c 0,23,24
 -453.559570312 885.080078125 -453.559570312 885.080078125 -457.619628906 876.379882812 c 128,-1,25
 -461.6796875 867.6796875 -461.6796875 867.6796875 -481.979980469 865.939941406 c 128,-1,26
 -502.280273438 864.200195312 -502.280273438 864.200195312 -586.959960938 858.399414062 c 2,27,-1
 -689.040039062 852.599609375 l 1,28,-1
 -656.559570312 814.319335938 l 1,29,30
 -633.360351562 785.319335938 -633.360351562 785.319335938 -633.360351562 775.459472656 c 128,-1,31
 -633.360351562 765.599609375 -633.360351562 765.599609375 -639.16015625 759.799804688 c 0,32,33
 -655.400390625 740.080078125 -655.400390625 740.080078125 -677.440429688 740.080078125 c 0,0,1
-980.200195312 814.319335938 m 0,34,35
 -980.200195312 817.799804688 -980.200195312 817.799804688 -976.719726562 822.439453125 c 256,36,37
 -973.240234375 827.080078125 -973.240234375 827.080078125 -963.959960938 851.439453125 c 1,38,-1
 -960.48046875 866.51953125 l 2,39,40
 -959.3203125 873.479492188 -959.3203125 873.479492188 -953.520019531 874.639648438 c 128,-1,41
 -947.719726562 875.799804688 -947.719726562 875.799804688 -915.819824219 875.799804688 c 128,-1,42
 -883.919921875 875.799804688 -883.919921875 875.799804688 -878.700195312 874.059570312 c 128,-1,43
 -873.48046875 872.319335938 -873.48046875 872.319335938 -878.700195312 864.779785156 c 128,-1,44
 -883.919921875 857.240234375 -883.919921875 857.240234375 -887.979980469 842.740234375 c 128,-1,45
 -892.040039062 828.240234375 -892.040039062 828.240234375 -893.200195312 825.33984375 c 128,-1,46
 -894.360351562 822.439453125 -894.360351562 822.439453125 -896.100097656 815.479492188 c 0,47,48
 -898.99959311 803.879882813 -898.99959311 803.879882813 -939.599609375 803.879882812 c 128,-1,49
 -980.200195312 803.879882812 -980.200195312 803.879882812 -980.200195312 814.319335938 c 0,34,35
EndSplineSet
EndChar

StartChar: V
Encoding: 86 86 10
Width: 46
VWidth: 1392
GlyphClass: 1
Flags: W
LayerCount: 2
Back
SplineSet
-479 361 m 0,1,2
 -479 364 -479 364 -476 368 c 256,3,4
 -473 372 -473 372 -465 393 c 2,5,-1
 -460 406 l 2,6,7
 -459 412 -459 412 -453 413 c 0,8,9
 -449 414 -449 414 -425 414 c 0,10,11
 -396 414 -396 414 -392 413 c 0,12,13
 -387 411 -387 411 -390 407 c 0,14,15
 -396 398 -396 398 -402 375 c 2,16,-1
 -406 363 l 2,17,18
 -409 355 -409 355 -416 354 c 0,19,20
 -426 352 -426 352 -444 352 c 0,21,0
 -479 352 -479 352 -479 361 c 0,1,2
-202 281 m 0,23,24
 -235 281 -235 281 -288 337 c 0,25,26
 -312 365 -312 365 -323 379 c 0,27,28
 -339 398 -339 398 -339 402 c 0,29,30
 -339 413 -339 413 -163 413 c 0,31,32
 -73 413 -73 413 -25 411 c 0,33,34
 11 408 11 408 9 400 c 0,35,36
 5 388 5 388 -104 383 c 2,37,-1
 -212 378 l 1,38,-1
 -184 345 l 2,39,40
 -164 320 -164 320 -164 311 c 0,41,42
 -164 303 -164 303 -169 298 c 0,43,22
 -183 281 -183 281 -202 281 c 0,23,24
EndSplineSet
Fore
SplineSet
-509.240234375 650.759765625 m 0,1,2
 -509.240234375 654.240234375 -509.240234375 654.240234375 -505.759765625 658.879882812 c 256,3,4
 -502.280273438 663.51953125 -502.280273438 663.51953125 -493 687.879882812 c 2,5,-1
 -487.200195312 702.959960938 l 1,6,7
 -486.040039062 709.919921875 -486.040039062 709.919921875 -480.240234375 711.080078125 c 128,-1,8
 -474.440429688 712.240234375 -474.440429688 712.240234375 -443.700195312 712.240234375 c 128,-1,9
 -412.959960938 712.240234375 -412.959960938 712.240234375 -407.739746094 710.5 c 128,-1,10
 -402.51953125 708.759765625 -402.51953125 708.759765625 -407.739746094 701.219726562 c 128,-1,11
 -412.959960938 693.6796875 -412.959960938 693.6796875 -419.919921875 667 c 1,12,-1
 -424.559570312 653.080078125 l 2,13,14
 -428.040039062 643.799804688 -428.040039062 643.799804688 -437.899902344 642.060058594 c 128,-1,15
 -447.759765625 640.3203125 -447.759765625 640.3203125 -478.5 640.3203125 c 128,-1,0
 -509.240234375 640.3203125 -509.240234375 640.3203125 -509.240234375 650.759765625 c 0,1,2
-187.919921875 557.959960938 m 0,16,17
 -238.951241231 557.959960938 -238.951241231 557.959960938 -328.280273438 671.639648438 c 0,18,19
 -346.83984375 693.6796875 -346.83984375 693.6796875 -346.83984375 698.3203125 c 0,20,21
 -346.83984375 711.080078125 -346.83984375 711.080078125 -192.560058594 711.080078125 c 128,-1,22
 -38.2802734375 711.080078125 -38.2802734375 711.080078125 17.400390625 708.759765625 c 0,23,24
 59.16015625 705.280273438 59.16015625 705.280273438 56.83984375 696 c 0,25,26
 52.2001953125 682.080078125 52.2001953125 682.080078125 -74.240234375 676.280273438 c 2,27,-1
 -199.51953125 670.48046875 l 1,28,-1
 -167.040039062 632.200195312 l 1,29,30
 -143.83984375 603.200195312 -143.83984375 603.200195312 -143.83984375 593.340332031 c 128,-1,31
 -143.83984375 583.48046875 -143.83984375 583.48046875 -149.639648438 577.6796875 c 0,32,33
 -165.879882812 557.959960938 -165.879882812 557.959960938 -187.919921875 557.959960938 c 0,16,17
EndSplineSet
EndChar

StartChar: W
Encoding: 87 87 11
Width: 46
VWidth: 1392
GlyphClass: 1
Flags: W
LayerCount: 2
Back
Refer: 7 81 N 1 0 0 1 0 230 2
Fore
SplineSet
-677.440429688 740.080078125 m 0,0,1
 -728.48297986 740.080078125 -728.48297986 740.080078125 -817.799804688 853.759765625 c 0,2,3
 -836.360351562 875.799804688 -836.360351562 875.799804688 -836.360351562 880.439453125 c 0,4,5
 -836.360351562 893.200195312 -836.360351562 893.200195312 -655.400390625 893.200195312 c 0,6,7
 -597.400390625 893.200195312 -597.400390625 893.200195312 -580 892.040039062 c 1,8,9
 -611.3203125 914.080078125 -611.3203125 914.080078125 -654.240234375 955.83984375 c 128,-1,10
 -697.16015625 997.599609375 -697.16015625 997.599609375 -697.16015625 1008.04003906 c 0,11,12
 -697.16015625 1013.83984375 -697.16015625 1013.83984375 -657.140136719 1017.31982422 c 128,-1,13
 -617.120117188 1020.79980469 -617.120117188 1020.79980469 -540.560058594 1020.79980469 c 128,-1,14
 -464 1020.79980469 -464 1020.79980469 -443.120117188 1019.63964844 c 1,15,16
 -461.6796875 1034.71972656 -461.6796875 1034.71972656 -504.01953125 1076.47949219 c 128,-1,17
 -546.360351562 1118.24023438 -546.360351562 1118.24023438 -546.360351562 1124.62011719 c 128,-1,18
 -546.360351562 1131 -546.360351562 1131 -515.040039062 1134.47949219 c 0,19,20
 -473.280273438 1136.79980469 -473.280273438 1136.79980469 -378.740234375 1136.79980469 c 128,-1,21
 -284.200195312 1136.79980469 -284.200195312 1136.79980469 -228.51953125 1134.47949219 c 0,22,23
 -189.080078125 1131 -189.080078125 1131 -189.080078125 1122.87988281 c 256,24,25
 -189.080078125 1114.75976562 -189.080078125 1114.75976562 -214.020019531 1111.27978516 c 128,-1,26
 -238.959960938 1107.79980469 -238.959960938 1107.79980469 -320.16015625 1102 c 2,27,-1
 -399.040039062 1096.20019531 l 1,28,-1
 -366.559570312 1057.91992188 l 2,29,30
 -343.360351562 1031.24023438 -343.360351562 1031.24023438 -343.360351562 1020.22021484 c 128,-1,31
 -343.360351562 1009.20019531 -343.360351562 1009.20019531 -352.060058594 999.919921875 c 128,-1,32
 -360.759765625 990.639648438 -360.759765625 990.639648438 -377.580078125 987.739746094 c 128,-1,33
 -394.400390625 984.83984375 -394.400390625 984.83984375 -435 984.83984375 c 1,34,-1
 -499.959960938 982.51953125 l 1,35,-1
 -549.83984375 980.200195312 l 1,36,-1
 -517.360351562 941.919921875 l 1,37,38
 -487.200195312 911.759765625 -487.200195312 911.759765625 -481.979980469 903.639648438 c 128,-1,39
 -476.759765625 895.51953125 -476.759765625 895.51953125 -476.759765625 886.240234375 c 0,40,41
 -476.759765625 871.16015625 -476.759765625 871.16015625 -499.959960938 867.680175781 c 128,-1,42
 -523.16015625 864.200195312 -523.16015625 864.200195312 -574.200195312 860.719726562 c 2,43,-1
 -689.040039062 852.599609375 l 1,44,-1
 -656.559570312 814.319335938 l 1,45,46
 -633.360351562 785.319335938 -633.360351562 785.319335938 -633.360351562 775.459472656 c 128,-1,47
 -633.360351562 765.599609375 -633.360351562 765.599609375 -639.16015625 759.799804688 c 0,48,49
 -655.400390625 740.080078125 -655.400390625 740.080078125 -677.440429688 740.080078125 c 0,0,1
-991.799804688 821.280273438 m 0,50,51
 -991.799804688 824.759765625 -991.799804688 824.759765625 -988.3203125 829.399414062 c 256,52,53
 -984.83984375 834.040039062 -984.83984375 834.040039062 -975.559570312 858.399414062 c 1,54,-1
 -972.080078125 873.479492188 l 2,55,56
 -970.919921875 880.439453125 -970.919921875 880.439453125 -965.120117188 881.599609375 c 128,-1,57
 -959.3203125 882.759765625 -959.3203125 882.759765625 -927.419921875 882.759765625 c 128,-1,58
 -895.51953125 882.759765625 -895.51953125 882.759765625 -890.299804688 881.020019531 c 128,-1,59
 -885.080078125 879.280273438 -885.080078125 879.280273438 -890.299804688 871.740234375 c 128,-1,60
 -895.51953125 864.200195312 -895.51953125 864.200195312 -899.579589844 849.700195312 c 128,-1,61
 -903.639648438 835.200195312 -903.639648438 835.200195312 -904.799804688 832.299804688 c 128,-1,62
 -905.959960938 829.399414062 -905.959960938 829.399414062 -907.700195312 822.439453125 c 0,63,64
 -910.600504546 810.83984375 -910.600504546 810.83984375 -951.200195312 810.83984375 c 128,-1,65
 -991.799804688 810.83984375 -991.799804688 810.83984375 -991.799804688 821.280273438 c 0,50,51
EndSplineSet
EndChar

StartChar: X
Encoding: 88 88 12
Width: 46
VWidth: 1392
GlyphClass: 1
Flags: W
LayerCount: 2
Back
SplineSet
-920 538 m 0,1,2
 -920 541 -920 541 -917 545 c 256,3,4
 -914 549 -914 549 -906 570 c 2,5,-1
 -901 583 l 2,6,7
 -900 589 -900 589 -894 590 c 0,8,9
 -890 591 -890 591 -866 591 c 0,10,11
 -837 591 -837 591 -833 590 c 0,12,13
 -828 588 -828 588 -831 584 c 0,14,15
 -837 575 -837 575 -843 552 c 2,16,-1
 -847 540 l 2,17,18
 -850 532 -850 532 -857 531 c 0,19,20
 -867 529 -867 529 -885 529 c 0,21,0
 -920 529 -920 529 -920 538 c 0,1,2
-643 458 m 0,23,24
 -676 458 -676 458 -729 514 c 0,25,26
 -753 542 -753 542 -764 556 c 0,27,28
 -780 575 -780 575 -780 579 c 0,29,30
 -780 590 -780 590 -604 590 c 0,31,32
 -514 590 -514 590 -466 588 c 0,33,34
 -430 585 -430 585 -432 577 c 0,35,36
 -436 565 -436 565 -545 560 c 2,37,-1
 -653 555 l 1,38,-1
 -625 522 l 2,39,40
 -605 497 -605 497 -605 488 c 0,41,42
 -605 480 -605 480 -610 475 c 0,43,22
 -624 458 -624 458 -643 458 c 0,23,24
EndSplineSet
Fore
SplineSet
-1020.79980469 856.080078125 m 0,1,2
 -1020.79980469 859.559570312 -1020.79980469 859.559570312 -1017.3203125 864.200195312 c 256,3,4
 -1013.83984375 868.83984375 -1013.83984375 868.83984375 -1004.55957031 893.200195312 c 2,5,-1
 -998.759765625 908.280273438 l 1,6,7
 -997.599609375 915.240234375 -997.599609375 915.240234375 -991.799804688 916.399902344 c 128,-1,8
 -986 917.559570312 -986 917.559570312 -955.259765625 917.559570312 c 128,-1,9
 -924.51953125 917.559570312 -924.51953125 917.559570312 -919.299804688 915.819824219 c 128,-1,10
 -914.080078125 914.080078125 -914.080078125 914.080078125 -919.299804688 906.540039062 c 128,-1,11
 -924.51953125 899 -924.51953125 899 -931.48046875 872.3203125 c 1,12,-1
 -936.120117188 858.400390625 l 2,13,14
 -939.599609375 849.120117188 -939.599609375 849.120117188 -949.459960938 847.379882812 c 128,-1,15
 -959.3203125 845.639648438 -959.3203125 845.639648438 -990.060058594 845.639648438 c 128,-1,0
 -1020.79980469 845.639648438 -1020.79980469 845.639648438 -1020.79980469 856.080078125 c 0,1,2
-699.48046875 763.280273438 m 0,16,17
 -750.523018923 763.280273438 -750.523018923 763.280273438 -839.83984375 876.959960938 c 0,18,19
 -858.400390625 899 -858.400390625 899 -858.400390625 903.639648438 c 0,20,21
 -858.400390625 916.400390625 -858.400390625 916.400390625 -704.120117188 916.400390625 c 128,-1,22
 -549.83984375 916.400390625 -549.83984375 916.400390625 -494.16015625 914.080078125 c 0,23,24
 -452.400390625 910.599609375 -452.400390625 910.599609375 -454.719726562 901.3203125 c 0,25,26
 -459.360351562 887.400390625 -459.360351562 887.400390625 -585.799804688 881.599609375 c 2,27,-1
 -711.080078125 875.799804688 l 1,28,-1
 -678.599609375 837.51953125 l 1,29,30
 -655.400390625 808.51953125 -655.400390625 808.51953125 -655.400390625 798.659667969 c 128,-1,31
 -655.400390625 788.799804688 -655.400390625 788.799804688 -661.200195312 783 c 0,32,33
 -677.440429688 763.280273438 -677.440429688 763.280273438 -699.48046875 763.280273438 c 0,16,17
EndSplineSet
EndChar

StartChar: Z
Encoding: 90 90 13
Width: 46
VWidth: 1392
GlyphClass: 1
Flags: W
LayerCount: 2
Back
SplineSet
-860 288 m 0,1,2
 -860 291 -860 291 -857 295 c 256,3,4
 -854 299 -854 299 -846 320 c 2,5,-1
 -841 333 l 2,6,7
 -840 339 -840 339 -834 340 c 0,8,9
 -830 341 -830 341 -806 341 c 0,10,11
 -777 341 -777 341 -773 340 c 0,12,13
 -768 338 -768 338 -771 334 c 0,14,15
 -777 325 -777 325 -783 302 c 2,16,-1
 -787 290 l 2,17,18
 -790 282 -790 282 -797 281 c 0,19,20
 -807 279 -807 279 -825 279 c 0,21,0
 -860 279 -860 279 -860 288 c 0,1,2
-583 208 m 0,23,24
 -616 208 -616 208 -669 264 c 0,25,26
 -693 292 -693 292 -704 306 c 0,27,28
 -720 325 -720 325 -720 329 c 0,29,30
 -720 340 -720 340 -544 340 c 0,31,32
 -454 340 -454 340 -406 338 c 0,33,34
 -370 335 -370 335 -372 327 c 0,35,36
 -376 315 -376 315 -485 310 c 2,37,-1
 -593 305 l 1,38,-1
 -565 272 l 2,39,40
 -545 247 -545 247 -545 238 c 0,41,42
 -545 230 -545 230 -550 225 c 0,43,22
 -564 208 -564 208 -583 208 c 0,23,24
EndSplineSet
Fore
SplineSet
-951.200195312 566.080078125 m 0,1,2
 -951.200195312 569.559570312 -951.200195312 569.559570312 -947.719726562 574.200195312 c 256,3,4
 -944.240234375 578.83984375 -944.240234375 578.83984375 -934.959960938 603.200195312 c 2,5,-1
 -929.16015625 618.280273438 l 1,6,7
 -928 625.240234375 -928 625.240234375 -922.200195312 626.399902344 c 128,-1,8
 -916.400390625 627.559570312 -916.400390625 627.559570312 -885.66015625 627.559570312 c 128,-1,9
 -854.919921875 627.559570312 -854.919921875 627.559570312 -849.700195312 625.819824219 c 128,-1,10
 -844.48046875 624.080078125 -844.48046875 624.080078125 -849.700195312 616.540039062 c 128,-1,11
 -854.919921875 609 -854.919921875 609 -861.879882812 582.3203125 c 1,12,-1
 -866.51953125 568.400390625 l 2,13,14
 -870 559.120117188 -870 559.120117188 -879.859863281 557.379882812 c 128,-1,15
 -889.719726562 555.639648438 -889.719726562 555.639648438 -920.459960938 555.639648438 c 128,-1,0
 -951.200195312 555.639648438 -951.200195312 555.639648438 -951.200195312 566.080078125 c 0,1,2
-629.879882812 473.280273438 m 0,16,17
 -680.923409548 473.280273438 -680.923409548 473.280273438 -770.240234375 586.959960938 c 0,18,19
 -788.799804688 609 -788.799804688 609 -788.799804688 613.639648438 c 0,20,21
 -788.799804688 626.400390625 -788.799804688 626.400390625 -634.520019531 626.400390625 c 128,-1,22
 -480.240234375 626.400390625 -480.240234375 626.400390625 -424.559570312 624.080078125 c 0,23,24
 -382.799804688 620.599609375 -382.799804688 620.599609375 -385.120117188 611.3203125 c 0,25,26
 -389.759765625 597.400390625 -389.759765625 597.400390625 -516.200195312 591.599609375 c 2,27,-1
 -641.48046875 585.799804688 l 1,28,-1
 -609 547.51953125 l 1,29,30
 -585.799804688 518.51953125 -585.799804688 518.51953125 -585.799804688 508.659667969 c 128,-1,31
 -585.799804688 498.799804688 -585.799804688 498.799804688 -591.599609375 493 c 0,32,33
 -607.83984375 473.280273438 -607.83984375 473.280273438 -629.879882812 473.280273438 c 0,16,17
EndSplineSet
EndChar

StartChar: a
Encoding: 97 97 14
Width: 46
VWidth: 1392
GlyphClass: 1
Flags: W
LayerCount: 2
Back
SplineSet
-624 208 m 0,1,2
 -657 208 -657 208 -710 264 c 0,3,4
 -734 292 -734 292 -745 306 c 0,5,6
 -761 325 -761 325 -761 329 c 0,7,8
 -761 340 -761 340 -605 340 c 0,9,10
 -535 340 -535 340 -520 339 c 1,11,12
 -558 365 -558 365 -605 426 c 0,13,14
 -621 445 -621 445 -621 449 c 0,15,16
 -621 454 -621 454 -586 457 c 0,17,18
 -552 460 -552 460 -510 460 c 0,19,20
 -411 460 -411 460 -359 458 c 0,21,22
 -321 455 -321 455 -323 447 c 0,23,24
 -328 433 -328 433 -451 427 c 2,25,-1
 -494 425 l 1,26,-1
 -466 392 l 1,27,28
 -431 357 -431 357 -431 336 c 0,29,30
 -431 333 -431 333 -433 327 c 0,31,32
 -438 318 -438 318 -458 317 c 0,33,34
 -473 315 -473 315 -546 310 c 2,35,-1
 -634 305 l 1,36,-1
 -606 272 l 2,37,38
 -586 247 -586 247 -586 238 c 0,39,40
 -586 230 -586 230 -591 225 c 0,41,0
 -605 208 -605 208 -624 208 c 0,1,2
EndSplineSet
Fore
SplineSet
-677.440429688 473.280273438 m 0,1,2
 -728.48297986 473.280273438 -728.48297986 473.280273438 -817.799804688 586.959960938 c 0,3,4
 -836.360351562 609 -836.360351562 609 -836.360351562 613.639648438 c 0,5,6
 -836.360351562 626.400390625 -836.360351562 626.400390625 -655.400390625 626.400390625 c 0,7,8
 -574.200195312 626.400390625 -574.200195312 626.400390625 -556.799804688 625.240234375 c 1,9,10
 -600.879882812 655.400390625 -600.879882812 655.400390625 -655.400390625 726.16015625 c 0,11,12
 -673.959960938 748.200195312 -673.959960938 748.200195312 -673.959960938 753.419921875 c 128,-1,13
 -673.959960938 758.639648438 -673.959960938 758.639648438 -633.939941406 762.119628906 c 128,-1,14
 -593.919921875 765.599609375 -593.919921875 765.599609375 -512.140136719 765.599609375 c 128,-1,15
 -430.360351562 765.599609375 -430.360351562 765.599609375 -370.040039062 763.280273438 c 0,16,17
 -325.959960938 759.799804688 -325.959960938 759.799804688 -328.280273438 750.51953125 c 0,18,19
 -334.080078125 734.280273438 -334.080078125 734.280273438 -476.759765625 727.3203125 c 2,20,-1
 -526.639648438 725 l 1,21,-1
 -494.16015625 686.719726562 l 1,22,23
 -453.559570312 646.120117188 -453.559570312 646.120117188 -453.559570312 621.759765625 c 0,24,25
 -453.559570312 618.280273438 -453.559570312 618.280273438 -457.619628906 609.580078125 c 128,-1,26
 -461.6796875 600.879882812 -461.6796875 600.879882812 -481.979980469 599.140136719 c 128,-1,27
 -502.280273438 597.400390625 -502.280273438 597.400390625 -586.959960938 591.599609375 c 2,28,-1
 -689.040039062 585.799804688 l 1,29,-1
 -656.559570312 547.51953125 l 1,30,31
 -633.360351562 518.51953125 -633.360351562 518.51953125 -633.360351562 508.659667969 c 128,-1,32
 -633.360351562 498.799804688 -633.360351562 498.799804688 -639.16015625 493 c 0,33,0
 -655.400390625 473.280273438 -655.400390625 473.280273438 -677.440429688 473.280273438 c 0,1,2
EndSplineSet
EndChar

StartChar: aring
Encoding: 229 229 15
Width: 46
VWidth: 1392
GlyphClass: 1
Flags: W
LayerCount: 2
Back
SplineSet
-624 208 m 0,1,2
 -657 208 -657 208 -710 264 c 0,3,4
 -734 292 -734 292 -745 306 c 0,5,6
 -761 325 -761 325 -761 329 c 0,7,8
 -761 340 -761 340 -605 340 c 0,9,10
 -535 340 -535 340 -520 339 c 1,11,12
 -558 365 -558 365 -605 426 c 0,13,14
 -621 445 -621 445 -621 449 c 0,15,16
 -621 454 -621 454 -586 457 c 0,17,18
 -552 460 -552 460 -510 460 c 0,19,20
 -411 460 -411 460 -359 458 c 0,21,22
 -321 455 -321 455 -323 447 c 0,23,24
 -328 433 -328 433 -451 427 c 2,25,-1
 -494 425 l 1,26,-1
 -466 392 l 1,27,28
 -431 357 -431 357 -431 336 c 0,29,30
 -431 333 -431 333 -433 327 c 0,31,32
 -438 318 -438 318 -458 317 c 0,33,34
 -473 315 -473 315 -546 310 c 2,35,-1
 -634 305 l 1,36,-1
 -606 272 l 2,37,38
 -586 247 -586 247 -586 238 c 0,39,40
 -586 230 -586 230 -591 225 c 0,41,0
 -605 208 -605 208 -624 208 c 0,1,2
-280 402 m 0,43,44
 -280 405 -280 405 -277 409 c 256,45,46
 -274 413 -274 413 -266 434 c 2,47,-1
 -263 447 l 2,48,49
 -262 453 -262 453 -256 454 c 0,50,51
 -252 455 -252 455 -226 455 c 0,52,53
 -197 455 -197 455 -193 454 c 0,54,55
 -188 452 -188 452 -191 448 c 0,56,57
 -197 439 -197 439 -203 416 c 0,58,59
 -204 414 -204 414 -205 411.5 c 128,-1,60
 -206 409 -206 409 -207 405 c 0,61,62
 -209 397 -209 397 -217 395 c 0,63,64
 -227 393 -227 393 -245 393 c 0,65,42
 -280 393 -280 393 -280 402 c 0,43,44
EndSplineSet
Fore
SplineSet
-677.440429688 473.280273438 m 0,1,2
 -728.48297986 473.280273438 -728.48297986 473.280273438 -817.799804688 586.959960938 c 0,3,4
 -836.360351562 609 -836.360351562 609 -836.360351562 613.639648438 c 0,5,6
 -836.360351562 626.400390625 -836.360351562 626.400390625 -655.400390625 626.400390625 c 0,7,8
 -574.200195312 626.400390625 -574.200195312 626.400390625 -556.799804688 625.240234375 c 1,9,10
 -600.879882812 655.400390625 -600.879882812 655.400390625 -655.400390625 726.16015625 c 0,11,12
 -673.959960938 748.200195312 -673.959960938 748.200195312 -673.959960938 753.419921875 c 128,-1,13
 -673.959960938 758.639648438 -673.959960938 758.639648438 -633.939941406 762.119628906 c 128,-1,14
 -593.919921875 765.599609375 -593.919921875 765.599609375 -512.140136719 765.599609375 c 128,-1,15
 -430.360351562 765.599609375 -430.360351562 765.599609375 -370.040039062 763.280273438 c 0,16,17
 -325.959960938 759.799804688 -325.959960938 759.799804688 -328.280273438 750.51953125 c 0,18,19
 -334.080078125 734.280273438 -334.080078125 734.280273438 -476.759765625 727.3203125 c 2,20,-1
 -526.639648438 725 l 1,21,-1
 -494.16015625 686.719726562 l 1,22,23
 -453.559570312 646.120117188 -453.559570312 646.120117188 -453.559570312 621.759765625 c 0,24,25
 -453.559570312 618.280273438 -453.559570312 618.280273438 -457.619628906 609.580078125 c 128,-1,26
 -461.6796875 600.879882812 -461.6796875 600.879882812 -481.979980469 599.140136719 c 128,-1,27
 -502.280273438 597.400390625 -502.280273438 597.400390625 -586.959960938 591.599609375 c 2,28,-1
 -689.040039062 585.799804688 l 1,29,-1
 -656.559570312 547.51953125 l 1,30,31
 -633.360351562 518.51953125 -633.360351562 518.51953125 -633.360351562 508.659667969 c 128,-1,32
 -633.360351562 498.799804688 -633.360351562 498.799804688 -639.16015625 493 c 0,33,0
 -655.400390625 473.280273438 -655.400390625 473.280273438 -677.440429688 473.280273438 c 0,1,2
-278.400390625 698.3203125 m 0,34,35
 -278.400390625 701.799804688 -278.400390625 701.799804688 -274.919921875 706.440429688 c 256,36,37
 -271.440429688 711.080078125 -271.440429688 711.080078125 -262.16015625 735.440429688 c 1,38,-1
 -258.6796875 750.51953125 l 2,39,40
 -257.51953125 757.48046875 -257.51953125 757.48046875 -251.719726562 758.640136719 c 128,-1,41
 -245.919921875 759.799804688 -245.919921875 759.799804688 -214.020019531 759.799804688 c 128,-1,42
 -182.120117188 759.799804688 -182.120117188 759.799804688 -176.899902344 758.060058594 c 128,-1,43
 -171.6796875 756.3203125 -171.6796875 756.3203125 -176.899902344 748.780273438 c 128,-1,44
 -182.120117188 741.240234375 -182.120117188 741.240234375 -186.180175781 726.740234375 c 128,-1,45
 -190.240234375 712.240234375 -190.240234375 712.240234375 -191.400390625 709.33984375 c 128,-1,46
 -192.559570312 706.440429688 -192.559570312 706.440429688 -194.299804688 699.479980469 c 0,47,48
 -197.200032541 687.879882812 -197.200032541 687.879882812 -237.799804688 687.879882812 c 128,-1,49
 -278.400390625 687.879882812 -278.400390625 687.879882812 -278.400390625 698.3203125 c 0,34,35
EndSplineSet
EndChar

StartChar: b
Encoding: 98 98 16
Width: 46
VWidth: 1392
GlyphClass: 1
Flags: W
LayerCount: 2
Back
SplineSet
-833 458 m 0,1,2
 -866 458 -866 458 -919 514 c 0,3,4
 -943 542 -943 542 -954 556 c 0,5,6
 -970 575 -970 575 -970 579 c 0,7,8
 -970 590 -970 590 -794 590 c 0,9,10
 -704 590 -704 590 -656 588 c 0,11,12
 -620 585 -620 585 -622 577 c 0,13,14
 -626 565 -626 565 -735 560 c 2,15,-1
 -843 555 l 1,16,-1
 -815 522 l 2,17,18
 -795 497 -795 497 -795 488 c 0,19,20
 -795 480 -795 480 -800 475 c 0,21,0
 -814 458 -814 458 -833 458 c 0,1,2
EndSplineSet
Fore
SplineSet
-919.879882812 763.280273438 m 0,1,2
 -970.923409548 763.280273438 -970.923409548 763.280273438 -1060.24023438 876.959960938 c 0,3,4
 -1078.79980469 899 -1078.79980469 899 -1078.79980469 903.639648438 c 0,5,6
 -1078.79980469 916.400390625 -1078.79980469 916.400390625 -924.520019531 916.400390625 c 128,-1,7
 -770.240234375 916.400390625 -770.240234375 916.400390625 -714.559570312 914.080078125 c 0,8,9
 -672.799804688 910.599609375 -672.799804688 910.599609375 -675.120117188 901.3203125 c 0,10,11
 -679.759765625 887.400390625 -679.759765625 887.400390625 -806.200195312 881.599609375 c 2,12,-1
 -931.48046875 875.799804688 l 1,13,-1
 -899 837.51953125 l 1,14,15
 -875.799804688 808.51953125 -875.799804688 808.51953125 -875.799804688 798.659667969 c 128,-1,16
 -875.799804688 788.799804688 -875.799804688 788.799804688 -881.599609375 783 c 0,17,0
 -897.83984375 763.280273438 -897.83984375 763.280273438 -919.879882812 763.280273438 c 0,1,2
EndSplineSet
EndChar

StartChar: c
Encoding: 99 99 17
Width: 46
VWidth: 1392
GlyphClass: 1
Flags: W
LayerCount: 2
Back
SplineSet
-583 -222 m 0,1,2
 -616 -222 -616 -222 -669 -166 c 0,3,4
 -693 -138 -693 -138 -704 -124 c 0,5,6
 -720 -105 -720 -105 -720 -101 c 0,7,8
 -720 -90 -720 -90 -544 -90 c 0,9,10
 -454 -90 -454 -90 -406 -92 c 0,11,12
 -370 -95 -370 -95 -372 -103 c 0,13,14
 -376 -115 -376 -115 -485 -120 c 2,15,-1
 -593 -125 l 1,16,-1
 -565 -158 l 2,17,18
 -545 -183 -545 -183 -545 -192 c 0,19,20
 -545 -200 -545 -200 -550 -205 c 0,21,0
 -564 -222 -564 -222 -583 -222 c 0,1,2
EndSplineSet
Fore
SplineSet
-629.879882812 -25.51953125 m 0,1,2
 -680.923409548 -25.51953125 -680.923409548 -25.51953125 -770.240234375 88.16015625 c 0,3,4
 -788.799804688 110.200195312 -788.799804688 110.200195312 -788.799804688 114.83984375 c 0,5,6
 -788.799804688 127.599609375 -788.799804688 127.599609375 -634.520019531 127.599609375 c 128,-1,7
 -480.240234375 127.599609375 -480.240234375 127.599609375 -424.559570312 125.280273438 c 0,8,9
 -382.799804688 121.799804688 -382.799804688 121.799804688 -385.120117188 112.51953125 c 0,10,11
 -389.759765625 98.599609375 -389.759765625 98.599609375 -516.200195312 92.7998046875 c 2,12,-1
 -641.48046875 87 l 1,13,-1
 -609 48.7197265625 l 1,14,15
 -585.799804688 19.7197265625 -585.799804688 19.7197265625 -585.799804688 9.85986328125 c 128,-1,16
 -585.799804688 0 -585.799804688 0 -591.599609375 -5.7998046875 c 0,17,0
 -607.83984375 -25.51953125 -607.83984375 -25.51953125 -629.879882812 -25.51953125 c 0,1,2
EndSplineSet
EndChar

StartChar: ccedilla
Encoding: 231 231 18
Width: 46
VWidth: 1392
GlyphClass: 1
Flags: W
LayerCount: 2
Back
SplineSet
-320 -132 m 0,1,2
 -320 -130 -320 -130 -317 -125 c 0,3,4
 -314 -121 -314 -121 -306 -100 c 2,5,-1
 -301 -87 l 2,6,7
 -300 -81 -300 -81 -294 -80 c 0,8,9
 -290 -79 -290 -79 -266 -79 c 0,10,11
 -237 -79 -237 -79 -233 -80 c 0,12,13
 -228 -82 -228 -82 -231 -86 c 0,14,15
 -237 -95 -237 -95 -243 -118 c 2,16,-1
 -247 -130 l 2,17,18
 -250 -138 -250 -138 -257 -139 c 0,19,20
 -267 -141 -267 -141 -285 -141 c 0,21,0
 -320 -141 -320 -141 -320 -132 c 0,1,2
-583 -222 m 0,23,24
 -616 -222 -616 -222 -669 -166 c 0,25,26
 -693 -138 -693 -138 -704 -124 c 0,27,28
 -720 -105 -720 -105 -720 -101 c 0,29,30
 -720 -90 -720 -90 -544 -90 c 0,31,32
 -454 -90 -454 -90 -406 -92 c 0,33,34
 -370 -95 -370 -95 -372 -103 c 0,35,36
 -376 -115 -376 -115 -485 -120 c 2,37,-1
 -593 -125 l 1,38,-1
 -565 -158 l 2,39,40
 -545 -183 -545 -183 -545 -192 c 0,41,42
 -545 -200 -545 -200 -550 -205 c 0,43,22
 -564 -222 -564 -222 -583 -222 c 0,23,24
EndSplineSet
Fore
SplineSet
-324.799804688 78.8798828125 m 0,1,2
 -324.799804688 81.2001953125 -324.799804688 81.2001953125 -321.319824219 86.419921875 c 128,-1,3
 -317.83984375 91.6396484375 -317.83984375 91.6396484375 -308.559570312 116 c 2,4,-1
 -302.759765625 131.080078125 l 1,5,6
 -301.599609375 138.040039062 -301.599609375 138.040039062 -295.799804688 139.200195312 c 128,-1,7
 -290 140.360351562 -290 140.360351562 -259.259765625 140.360351562 c 128,-1,8
 -228.51953125 140.360351562 -228.51953125 140.360351562 -223.299804688 138.620117188 c 128,-1,9
 -218.080078125 136.879882812 -218.080078125 136.879882812 -223.299804688 129.33984375 c 128,-1,10
 -228.51953125 121.799804688 -228.51953125 121.799804688 -235.48046875 95.1201171875 c 1,11,-1
 -240.120117188 81.2001953125 l 2,12,13
 -243.599609375 71.919921875 -243.599609375 71.919921875 -253.459960938 70.1801757812 c 128,-1,14
 -263.3203125 68.4404296875 -263.3203125 68.4404296875 -294.060058594 68.4404296875 c 128,-1,0
 -324.799804688 68.4404296875 -324.799804688 68.4404296875 -324.799804688 78.8798828125 c 0,1,2
-629.879882812 -25.51953125 m 0,15,16
 -680.923409548 -25.51953125 -680.923409548 -25.51953125 -770.240234375 88.16015625 c 0,17,18
 -788.799804688 110.200195312 -788.799804688 110.200195312 -788.799804688 114.83984375 c 0,19,20
 -788.799804688 127.599609375 -788.799804688 127.599609375 -634.520019531 127.599609375 c 128,-1,21
 -480.240234375 127.599609375 -480.240234375 127.599609375 -424.559570312 125.280273438 c 0,22,23
 -382.799804688 121.799804688 -382.799804688 121.799804688 -385.120117188 112.51953125 c 0,24,25
 -389.759765625 98.599609375 -389.759765625 98.599609375 -516.200195312 92.7998046875 c 2,26,-1
 -641.48046875 87 l 1,27,-1
 -609 48.7197265625 l 1,28,29
 -585.799804688 19.7197265625 -585.799804688 19.7197265625 -585.799804688 9.85986328125 c 128,-1,30
 -585.799804688 0 -585.799804688 0 -591.599609375 -5.7998046875 c 0,31,32
 -607.83984375 -25.51953125 -607.83984375 -25.51953125 -629.879882812 -25.51953125 c 0,15,16
EndSplineSet
EndChar

StartChar: f
Encoding: 102 102 19
Width: 46
VWidth: 1392
GlyphClass: 1
Flags: W
LayerCount: 2
Back
Refer: 14 97 N 1 0 0 1 0 0 0
Fore
SplineSet
-677.440429688 473.280273438 m 0,0,1
 -728.48297986 473.280273438 -728.48297986 473.280273438 -817.799804688 586.959960938 c 0,2,3
 -836.360351562 609 -836.360351562 609 -836.360351562 613.639648438 c 0,4,5
 -836.360351562 626.400390625 -836.360351562 626.400390625 -655.400390625 626.400390625 c 0,6,7
 -574.200195312 626.400390625 -574.200195312 626.400390625 -556.799804688 625.240234375 c 1,8,9
 -600.879882812 655.400390625 -600.879882812 655.400390625 -655.400390625 726.16015625 c 0,10,11
 -673.959960938 748.200195312 -673.959960938 748.200195312 -673.959960938 753.419921875 c 128,-1,12
 -673.959960938 758.639648438 -673.959960938 758.639648438 -633.939941406 762.119628906 c 128,-1,13
 -593.919921875 765.599609375 -593.919921875 765.599609375 -512.140136719 765.599609375 c 128,-1,14
 -430.360351562 765.599609375 -430.360351562 765.599609375 -370.040039062 763.280273438 c 0,15,16
 -325.959960938 759.799804688 -325.959960938 759.799804688 -328.280273438 750.51953125 c 0,17,18
 -334.080078125 734.280273438 -334.080078125 734.280273438 -476.759765625 727.3203125 c 2,19,-1
 -526.639648438 725 l 1,20,-1
 -494.16015625 686.719726562 l 1,21,22
 -453.559570312 646.120117188 -453.559570312 646.120117188 -453.559570312 621.759765625 c 0,23,24
 -453.559570312 618.280273438 -453.559570312 618.280273438 -457.619628906 609.580078125 c 128,-1,25
 -461.6796875 600.879882812 -461.6796875 600.879882812 -481.979980469 599.140136719 c 128,-1,26
 -502.280273438 597.400390625 -502.280273438 597.400390625 -586.959960938 591.599609375 c 2,27,-1
 -689.040039062 585.799804688 l 1,28,-1
 -656.559570312 547.51953125 l 1,29,30
 -633.360351562 518.51953125 -633.360351562 518.51953125 -633.360351562 508.659667969 c 128,-1,31
 -633.360351562 498.799804688 -633.360351562 498.799804688 -639.16015625 493 c 0,32,33
 -655.400390625 473.280273438 -655.400390625 473.280273438 -677.440429688 473.280273438 c 0,0,1
EndSplineSet
EndChar

StartChar: m
Encoding: 109 109 20
Width: 46
VWidth: 1392
GlyphClass: 1
Flags: W
LayerCount: 2
Back
SplineSet
-313 458 m 0,1,2
 -346 458 -346 458 -399 514 c 0,3,4
 -423 542 -423 542 -434 556 c 0,5,6
 -450 575 -450 575 -450 579 c 0,7,8
 -450 590 -450 590 -274 590 c 0,9,10
 -184 590 -184 590 -136 588 c 0,11,12
 -100 585 -100 585 -102 577 c 0,13,14
 -106 565 -106 565 -215 560 c 2,15,-1
 -323 555 l 1,16,-1
 -295 522 l 2,17,18
 -275 497 -275 497 -275 488 c 0,19,20
 -275 480 -275 480 -280 475 c 0,21,0
 -294 458 -294 458 -313 458 c 0,1,2
EndSplineSet
Fore
SplineSet
-316.6796875 763.280273438 m 0,1,2
 -367.723214235 763.280273438 -367.723214235 763.280273438 -457.040039062 876.959960938 c 0,3,4
 -475.599609375 899 -475.599609375 899 -475.599609375 903.639648438 c 0,5,6
 -475.599609375 916.400390625 -475.599609375 916.400390625 -321.319824219 916.400390625 c 128,-1,7
 -167.040039062 916.400390625 -167.040039062 916.400390625 -111.360351562 914.080078125 c 0,8,9
 -69.599609375 910.599609375 -69.599609375 910.599609375 -71.919921875 901.3203125 c 0,10,11
 -76.5595703125 887.400390625 -76.5595703125 887.400390625 -203 881.599609375 c 2,12,-1
 -328.280273438 875.799804688 l 1,13,-1
 -295.799804688 837.51953125 l 1,14,15
 -272.599609375 808.51953125 -272.599609375 808.51953125 -272.599609375 798.659667969 c 128,-1,16
 -272.599609375 788.799804688 -272.599609375 788.799804688 -278.400390625 783 c 0,17,0
 -294.639648438 763.280273438 -294.639648438 763.280273438 -316.6796875 763.280273438 c 0,1,2
EndSplineSet
EndChar

StartChar: n
Encoding: 110 110 21
Width: 46
VWidth: 1392
GlyphClass: 1
Flags: W
LayerCount: 2
Back
SplineSet
-201 -292 m 0,1,2
 -234 -292 -234 -292 -287 -236 c 0,3,4
 -311 -208 -311 -208 -322 -194 c 0,5,6
 -338 -175 -338 -175 -338 -171 c 0,7,8
 -338 -160 -338 -160 -162 -160 c 0,9,10
 -72 -160 -72 -160 -24 -162 c 0,11,12
 12 -165 12 -165 10 -173 c 0,13,14
 6 -185 6 -185 -103 -190 c 2,15,-1
 -211 -195 l 1,16,-1
 -183 -228 l 2,17,18
 -163 -253 -163 -253 -163 -262 c 0,19,20
 -163 -270 -163 -270 -168 -275 c 0,21,0
 -182 -292 -182 -292 -201 -292 c 0,1,2
EndSplineSet
Fore
SplineSet
-186.759765625 -106.719726562 m 0,1,2
 -237.80329236 -106.719726562 -237.80329236 -106.719726562 -327.120117188 6.9599609375 c 0,3,4
 -345.6796875 29 -345.6796875 29 -345.6796875 33.6396484375 c 0,5,6
 -345.6796875 46.400390625 -345.6796875 46.400390625 -191.399902344 46.400390625 c 128,-1,7
 -37.1201171875 46.400390625 -37.1201171875 46.400390625 18.5595703125 44.080078125 c 0,8,9
 60.3203125 40.599609375 60.3203125 40.599609375 58 31.3203125 c 0,10,11
 53.3603515625 17.400390625 53.3603515625 17.400390625 -73.080078125 11.599609375 c 2,12,-1
 -198.360351562 5.7998046875 l 1,13,-1
 -165.879882812 -32.48046875 l 1,14,15
 -142.6796875 -61.48046875 -142.6796875 -61.48046875 -142.6796875 -71.3403320312 c 128,-1,16
 -142.6796875 -81.2001953125 -142.6796875 -81.2001953125 -148.48046875 -87 c 0,17,0
 -164.719726562 -106.719726562 -164.719726562 -106.719726562 -186.759765625 -106.719726562 c 0,1,2
EndSplineSet
EndChar

StartChar: oe
Encoding: 339 339 22
Width: 46
VWidth: 1392
GlyphClass: 1
Flags: W
LayerCount: 2
Back
SplineSet
-624 208 m 0,1,2
 -657 208 -657 208 -710 264 c 0,3,4
 -734 292 -734 292 -745 306 c 0,5,6
 -761 325 -761 325 -761 329 c 0,7,8
 -761 340 -761 340 -605 340 c 0,9,10
 -555 340 -555 340 -540 339 c 1,11,12
 -567 358 -567 358 -604 394 c 128,-1,13
 -641 430 -641 430 -641 439 c 0,14,15
 -641 444 -641 444 -606 447 c 0,16,17
 -572 450 -572 450 -530 450 c 0,18,19
 -440 450 -440 450 -422 449 c 1,20,21
 -438 462 -438 462 -474.5 498 c 128,-1,22
 -511 534 -511 534 -511 539 c 0,23,24
 -511 545 -511 545 -484 548 c 0,25,26
 -448 550 -448 550 -375 550 c 0,27,28
 -285 550 -285 550 -237 548 c 0,29,30
 -203 545 -203 545 -203 538 c 256,31,32
 -203 531 -203 531 -231 528 c 0,33,34
 -246 525 -246 525 -316 520 c 2,35,-1
 -384 515 l 1,36,-1
 -356 482 l 2,37,38
 -336 459 -336 459 -336 446 c 0,39,40
 -336 440 -336 440 -342 434 c 0,41,42
 -351 424 -351 424 -365 422 c 0,43,44
 -380 419 -380 419 -415 419 c 2,45,-1
 -471 417 l 1,46,-1
 -514 415 l 1,47,-1
 -486 382 l 2,48,49
 -460 356 -460 356 -455 347 c 0,50,51
 -451 342 -451 342 -451 334 c 0,52,53
 -451 321 -451 321 -473 318 c 0,54,55
 -491 315 -491 315 -535 312 c 2,56,-1
 -634 305 l 1,57,-1
 -606 272 l 2,58,59
 -586 247 -586 247 -586 238 c 0,60,61
 -586 230 -586 230 -591 225 c 0,62,0
 -605 208 -605 208 -624 208 c 0,1,2
-155 488 m 0,64,65
 -155 491 -155 491 -152 495 c 256,66,67
 -149 499 -149 499 -141 520 c 2,68,-1
 -138 533 l 2,69,70
 -137 539 -137 539 -131 540 c 0,71,72
 -127 541 -127 541 -101 541 c 0,73,74
 -72 541 -72 541 -68 540 c 0,75,76
 -63 538 -63 538 -66 534 c 0,77,78
 -72 525 -72 525 -78 502 c 0,79,80
 -79 500 -79 500 -80 497.5 c 128,-1,81
 -81 495 -81 495 -82 491 c 0,82,83
 -84 483 -84 483 -92 481 c 0,84,85
 -102 479 -102 479 -120 479 c 0,86,63
 -155 479 -155 479 -155 488 c 0,64,65
EndSplineSet
Fore
SplineSet
-677.440429688 473.280273438 m 0,1,2
 -728.48297986 473.280273438 -728.48297986 473.280273438 -817.799804688 586.959960938 c 0,3,4
 -836.360351562 609 -836.360351562 609 -836.360351562 613.639648438 c 0,5,6
 -836.360351562 626.400390625 -836.360351562 626.400390625 -655.400390625 626.400390625 c 0,7,8
 -597.400390625 626.400390625 -597.400390625 626.400390625 -580 625.240234375 c 1,9,10
 -611.3203125 647.280273438 -611.3203125 647.280273438 -654.240234375 689.040039062 c 128,-1,11
 -697.16015625 730.799804688 -697.16015625 730.799804688 -697.16015625 741.240234375 c 0,12,13
 -697.16015625 747.040039062 -697.16015625 747.040039062 -657.140136719 750.520019531 c 128,-1,14
 -617.120117188 754 -617.120117188 754 -540.560058594 754 c 128,-1,15
 -464 754 -464 754 -443.120117188 752.83984375 c 1,16,17
 -461.6796875 767.919921875 -461.6796875 767.919921875 -504.01953125 809.6796875 c 128,-1,18
 -546.360351562 851.440429688 -546.360351562 851.440429688 -546.360351562 857.8203125 c 128,-1,19
 -546.360351562 864.200195312 -546.360351562 864.200195312 -515.040039062 867.6796875 c 0,20,21
 -473.280273438 870 -473.280273438 870 -378.740234375 870 c 128,-1,22
 -284.200195312 870 -284.200195312 870 -228.51953125 867.6796875 c 0,23,24
 -189.080078125 864.200195312 -189.080078125 864.200195312 -189.080078125 856.080078125 c 256,25,26
 -189.080078125 847.959960938 -189.080078125 847.959960938 -214.020019531 844.479980469 c 128,-1,27
 -238.959960938 841 -238.959960938 841 -320.16015625 835.200195312 c 2,28,-1
 -399.040039062 829.400390625 l 1,29,-1
 -366.559570312 791.120117188 l 2,30,31
 -343.360351562 764.440429688 -343.360351562 764.440429688 -343.360351562 753.420410156 c 128,-1,32
 -343.360351562 742.400390625 -343.360351562 742.400390625 -352.060058594 733.120117188 c 128,-1,33
 -360.759765625 723.83984375 -360.759765625 723.83984375 -377.580078125 720.939941406 c 128,-1,34
 -394.400390625 718.040039062 -394.400390625 718.040039062 -435 718.040039062 c 1,35,-1
 -499.959960938 715.719726562 l 1,36,-1
 -549.83984375 713.400390625 l 1,37,-1
 -517.360351562 675.120117188 l 1,38,39
 -487.200195312 644.959960938 -487.200195312 644.959960938 -481.979980469 636.83984375 c 128,-1,40
 -476.759765625 628.719726562 -476.759765625 628.719726562 -476.759765625 619.440429688 c 0,41,42
 -476.759765625 604.360351562 -476.759765625 604.360351562 -499.959960938 600.880371094 c 128,-1,43
 -523.16015625 597.400390625 -523.16015625 597.400390625 -574.200195312 593.919921875 c 2,44,-1
 -689.040039062 585.799804688 l 1,45,-1
 -656.559570312 547.51953125 l 1,46,47
 -633.360351562 518.51953125 -633.360351562 518.51953125 -633.360351562 508.659667969 c 128,-1,48
 -633.360351562 498.799804688 -633.360351562 498.799804688 -639.16015625 493 c 0,49,0
 -655.400390625 473.280273438 -655.400390625 473.280273438 -677.440429688 473.280273438 c 0,1,2
-133.400390625 798.080078125 m 0,50,51
 -133.400390625 801.559570312 -133.400390625 801.559570312 -129.919921875 806.200195312 c 256,52,53
 -126.440429688 810.83984375 -126.440429688 810.83984375 -117.16015625 835.200195312 c 1,54,-1
 -113.6796875 850.280273438 l 2,55,56
 -112.51953125 857.240234375 -112.51953125 857.240234375 -106.719726562 858.399902344 c 128,-1,57
 -100.919921875 859.559570312 -100.919921875 859.559570312 -69.0200195312 859.559570312 c 128,-1,58
 -37.1201171875 859.559570312 -37.1201171875 859.559570312 -31.8999023438 857.819824219 c 128,-1,59
 -26.6796875 856.080078125 -26.6796875 856.080078125 -31.8999023438 848.540039062 c 128,-1,60
 -37.1201171875 841 -37.1201171875 841 -41.1801757812 826.5 c 128,-1,61
 -45.240234375 812 -45.240234375 812 -46.400390625 809.099609375 c 128,-1,62
 -47.5595703125 806.200195312 -47.5595703125 806.200195312 -49.2998046875 799.240234375 c 0,63,64
 -52.2003580958 787.639648438 -52.2003580958 787.639648438 -92.7998046875 787.639648438 c 128,-1,65
 -133.400390625 787.639648438 -133.400390625 787.639648438 -133.400390625 798.080078125 c 0,50,51
EndSplineSet
EndChar

StartChar: q
Encoding: 113 113 23
Width: 46
VWidth: 1392
GlyphClass: 1
Flags: W
LayerCount: 2
Back
SplineSet
-624 208 m 0,1,2
 -657 208 -657 208 -710 264 c 0,3,4
 -734 292 -734 292 -745 306 c 0,5,6
 -761 325 -761 325 -761 329 c 0,7,8
 -761 340 -761 340 -605 340 c 0,9,10
 -555 340 -555 340 -540 339 c 1,11,12
 -567 358 -567 358 -604 394 c 128,-1,13
 -641 430 -641 430 -641 439 c 0,14,15
 -641 444 -641 444 -606 447 c 0,16,17
 -572 450 -572 450 -530 450 c 0,18,19
 -440 450 -440 450 -422 449 c 1,20,21
 -438 462 -438 462 -474.5 498 c 128,-1,22
 -511 534 -511 534 -511 539 c 0,23,24
 -511 545 -511 545 -484 548 c 0,25,26
 -448 550 -448 550 -375 550 c 0,27,28
 -285 550 -285 550 -237 548 c 0,29,30
 -203 545 -203 545 -203 538 c 256,31,32
 -203 531 -203 531 -231 528 c 0,33,34
 -246 525 -246 525 -316 520 c 2,35,-1
 -384 515 l 1,36,-1
 -356 482 l 2,37,38
 -336 459 -336 459 -336 446 c 0,39,40
 -336 440 -336 440 -342 434 c 0,41,42
 -351 424 -351 424 -365 422 c 0,43,44
 -380 419 -380 419 -415 419 c 2,45,-1
 -471 417 l 1,46,-1
 -514 415 l 1,47,-1
 -486 382 l 2,48,49
 -460 356 -460 356 -455 347 c 0,50,51
 -451 342 -451 342 -451 334 c 0,52,53
 -451 321 -451 321 -473 318 c 0,54,55
 -491 315 -491 315 -535 312 c 2,56,-1
 -634 305 l 1,57,-1
 -606 272 l 2,58,59
 -586 247 -586 247 -586 238 c 0,60,61
 -586 230 -586 230 -591 225 c 0,62,0
 -605 208 -605 208 -624 208 c 0,1,2
EndSplineSet
Fore
SplineSet
-677.440429688 473.280273438 m 0,1,2
 -728.48297986 473.280273438 -728.48297986 473.280273438 -817.799804688 586.959960938 c 0,3,4
 -836.360351562 609 -836.360351562 609 -836.360351562 613.639648438 c 0,5,6
 -836.360351562 626.400390625 -836.360351562 626.400390625 -655.400390625 626.400390625 c 0,7,8
 -597.400390625 626.400390625 -597.400390625 626.400390625 -580 625.240234375 c 1,9,10
 -611.3203125 647.280273438 -611.3203125 647.280273438 -654.240234375 689.040039062 c 128,-1,11
 -697.16015625 730.799804688 -697.16015625 730.799804688 -697.16015625 741.240234375 c 0,12,13
 -697.16015625 747.040039062 -697.16015625 747.040039062 -657.140136719 750.520019531 c 128,-1,14
 -617.120117188 754 -617.120117188 754 -540.560058594 754 c 128,-1,15
 -464 754 -464 754 -443.120117188 752.83984375 c 1,16,17
 -461.6796875 767.919921875 -461.6796875 767.919921875 -504.01953125 809.6796875 c 128,-1,18
 -546.360351562 851.440429688 -546.360351562 851.440429688 -546.360351562 857.8203125 c 128,-1,19
 -546.360351562 864.200195312 -546.360351562 864.200195312 -515.040039062 867.6796875 c 0,20,21
 -473.280273438 870 -473.280273438 870 -378.740234375 870 c 128,-1,22
 -284.200195312 870 -284.200195312 870 -228.51953125 867.6796875 c 0,23,24
 -189.080078125 864.200195312 -189.080078125 864.200195312 -189.080078125 856.080078125 c 256,25,26
 -189.080078125 847.959960938 -189.080078125 847.959960938 -214.020019531 844.479980469 c 128,-1,27
 -238.959960938 841 -238.959960938 841 -320.16015625 835.200195312 c 2,28,-1
 -399.040039062 829.400390625 l 1,29,-1
 -366.559570312 791.120117188 l 2,30,31
 -343.360351562 764.440429688 -343.360351562 764.440429688 -343.360351562 753.420410156 c 128,-1,32
 -343.360351562 742.400390625 -343.360351562 742.400390625 -352.060058594 733.120117188 c 128,-1,33
 -360.759765625 723.83984375 -360.759765625 723.83984375 -377.580078125 720.939941406 c 128,-1,34
 -394.400390625 718.040039062 -394.400390625 718.040039062 -435 718.040039062 c 1,35,-1
 -499.959960938 715.719726562 l 1,36,-1
 -549.83984375 713.400390625 l 1,37,-1
 -517.360351562 675.120117188 l 1,38,39
 -487.200195312 644.959960938 -487.200195312 644.959960938 -481.979980469 636.83984375 c 128,-1,40
 -476.759765625 628.719726562 -476.759765625 628.719726562 -476.759765625 619.440429688 c 0,41,42
 -476.759765625 604.360351562 -476.759765625 604.360351562 -499.959960938 600.880371094 c 128,-1,43
 -523.16015625 597.400390625 -523.16015625 597.400390625 -574.200195312 593.919921875 c 2,44,-1
 -689.040039062 585.799804688 l 1,45,-1
 -656.559570312 547.51953125 l 1,46,47
 -633.360351562 518.51953125 -633.360351562 518.51953125 -633.360351562 508.659667969 c 128,-1,48
 -633.360351562 498.799804688 -633.360351562 498.799804688 -639.16015625 493 c 0,49,0
 -655.400390625 473.280273438 -655.400390625 473.280273438 -677.440429688 473.280273438 c 0,1,2
EndSplineSet
EndChar

StartChar: r
Encoding: 114 114 24
Width: 46
VWidth: 1392
GlyphClass: 1
Flags: W
LayerCount: 2
Back
Refer: 23 113 N 1 0 0 1 0 0 0
Fore
SplineSet
-677.440429688 473.280273438 m 0,0,1
 -728.48297986 473.280273438 -728.48297986 473.280273438 -817.799804688 586.959960938 c 0,2,3
 -836.360351562 609 -836.360351562 609 -836.360351562 613.639648438 c 0,4,5
 -836.360351562 626.400390625 -836.360351562 626.400390625 -655.400390625 626.400390625 c 0,6,7
 -597.400390625 626.400390625 -597.400390625 626.400390625 -580 625.240234375 c 1,8,9
 -611.3203125 647.280273438 -611.3203125 647.280273438 -654.240234375 689.040039062 c 128,-1,10
 -697.16015625 730.799804688 -697.16015625 730.799804688 -697.16015625 741.240234375 c 0,11,12
 -697.16015625 747.040039062 -697.16015625 747.040039062 -657.140136719 750.520019531 c 128,-1,13
 -617.120117188 754 -617.120117188 754 -540.560058594 754 c 128,-1,14
 -464 754 -464 754 -443.120117188 752.83984375 c 1,15,16
 -461.6796875 767.919921875 -461.6796875 767.919921875 -504.01953125 809.6796875 c 128,-1,17
 -546.360351562 851.440429688 -546.360351562 851.440429688 -546.360351562 857.8203125 c 128,-1,18
 -546.360351562 864.200195312 -546.360351562 864.200195312 -515.040039062 867.6796875 c 0,19,20
 -473.280273438 870 -473.280273438 870 -378.740234375 870 c 128,-1,21
 -284.200195312 870 -284.200195312 870 -228.51953125 867.6796875 c 0,22,23
 -189.080078125 864.200195312 -189.080078125 864.200195312 -189.080078125 856.080078125 c 256,24,25
 -189.080078125 847.959960938 -189.080078125 847.959960938 -214.020019531 844.479980469 c 128,-1,26
 -238.959960938 841 -238.959960938 841 -320.16015625 835.200195312 c 2,27,-1
 -399.040039062 829.400390625 l 1,28,-1
 -366.559570312 791.120117188 l 2,29,30
 -343.360351562 764.440429688 -343.360351562 764.440429688 -343.360351562 753.420410156 c 128,-1,31
 -343.360351562 742.400390625 -343.360351562 742.400390625 -352.060058594 733.120117188 c 128,-1,32
 -360.759765625 723.83984375 -360.759765625 723.83984375 -377.580078125 720.939941406 c 128,-1,33
 -394.400390625 718.040039062 -394.400390625 718.040039062 -435 718.040039062 c 1,34,-1
 -499.959960938 715.719726562 l 1,35,-1
 -549.83984375 713.400390625 l 1,36,-1
 -517.360351562 675.120117188 l 1,37,38
 -487.200195312 644.959960938 -487.200195312 644.959960938 -481.979980469 636.83984375 c 128,-1,39
 -476.759765625 628.719726562 -476.759765625 628.719726562 -476.759765625 619.440429688 c 0,40,41
 -476.759765625 604.360351562 -476.759765625 604.360351562 -499.959960938 600.880371094 c 128,-1,42
 -523.16015625 597.400390625 -523.16015625 597.400390625 -574.200195312 593.919921875 c 2,43,-1
 -689.040039062 585.799804688 l 1,44,-1
 -656.559570312 547.51953125 l 1,45,46
 -633.360351562 518.51953125 -633.360351562 518.51953125 -633.360351562 508.659667969 c 128,-1,47
 -633.360351562 498.799804688 -633.360351562 498.799804688 -639.16015625 493 c 0,48,49
 -655.400390625 473.280273438 -655.400390625 473.280273438 -677.440429688 473.280273438 c 0,0,1
EndSplineSet
EndChar

StartChar: s
Encoding: 115 115 25
Width: 46
VWidth: 1392
GlyphClass: 1
Flags: W
LayerCount: 2
Back
Refer: 14 97 N 1 0 0 1 0 230 2
Fore
SplineSet
-677.440429688 740.080078125 m 0,0,1
 -728.48297986 740.080078125 -728.48297986 740.080078125 -817.799804688 853.759765625 c 0,2,3
 -836.360351562 875.799804688 -836.360351562 875.799804688 -836.360351562 880.439453125 c 0,4,5
 -836.360351562 893.200195312 -836.360351562 893.200195312 -655.400390625 893.200195312 c 0,6,7
 -574.200195312 893.200195312 -574.200195312 893.200195312 -556.799804688 892.040039062 c 1,8,9
 -600.879882812 922.200195312 -600.879882812 922.200195312 -655.400390625 992.959960938 c 0,10,11
 -673.959960938 1015 -673.959960938 1015 -673.959960938 1020.21972656 c 128,-1,12
 -673.959960938 1025.43945312 -673.959960938 1025.43945312 -633.939941406 1028.91943359 c 128,-1,13
 -593.919921875 1032.39941406 -593.919921875 1032.39941406 -512.140136719 1032.39941406 c 128,-1,14
 -430.360351562 1032.39941406 -430.360351562 1032.39941406 -370.040039062 1030.08007812 c 0,15,16
 -325.959960938 1026.59960938 -325.959960938 1026.59960938 -328.280273438 1017.31933594 c 0,17,18
 -334.080078125 1001.08007812 -334.080078125 1001.08007812 -476.759765625 994.120117188 c 2,19,-1
 -526.639648438 991.799804688 l 1,20,-1
 -494.16015625 953.51953125 l 1,21,22
 -453.559570312 912.919921875 -453.559570312 912.919921875 -453.559570312 888.559570312 c 0,23,24
 -453.559570312 885.080078125 -453.559570312 885.080078125 -457.619628906 876.379882812 c 128,-1,25
 -461.6796875 867.6796875 -461.6796875 867.6796875 -481.979980469 865.939941406 c 128,-1,26
 -502.280273438 864.200195312 -502.280273438 864.200195312 -586.959960938 858.399414062 c 2,27,-1
 -689.040039062 852.599609375 l 1,28,-1
 -656.559570312 814.319335938 l 1,29,30
 -633.360351562 785.319335938 -633.360351562 785.319335938 -633.360351562 775.459472656 c 128,-1,31
 -633.360351562 765.599609375 -633.360351562 765.599609375 -639.16015625 759.799804688 c 0,32,33
 -655.400390625 740.080078125 -655.400390625 740.080078125 -677.440429688 740.080078125 c 0,0,1
EndSplineSet
EndChar

StartChar: germandbls
Encoding: 223 223 26
Width: 46
VWidth: 1392
GlyphClass: 1
Flags: W
LayerCount: 2
Back
Refer: 15 229 N 1 0 0 1 0 230 2
Fore
SplineSet
-677.440429688 740.080078125 m 0,0,1
 -728.48297986 740.080078125 -728.48297986 740.080078125 -817.799804688 853.759765625 c 0,2,3
 -836.360351562 875.799804688 -836.360351562 875.799804688 -836.360351562 880.439453125 c 0,4,5
 -836.360351562 893.200195312 -836.360351562 893.200195312 -655.400390625 893.200195312 c 0,6,7
 -574.200195312 893.200195312 -574.200195312 893.200195312 -556.799804688 892.040039062 c 1,8,9
 -600.879882812 922.200195312 -600.879882812 922.200195312 -655.400390625 992.959960938 c 0,10,11
 -673.959960938 1015 -673.959960938 1015 -673.959960938 1020.21972656 c 128,-1,12
 -673.959960938 1025.43945312 -673.959960938 1025.43945312 -633.939941406 1028.91943359 c 128,-1,13
 -593.919921875 1032.39941406 -593.919921875 1032.39941406 -512.140136719 1032.39941406 c 128,-1,14
 -430.360351562 1032.39941406 -430.360351562 1032.39941406 -370.040039062 1030.08007812 c 0,15,16
 -325.959960938 1026.59960938 -325.959960938 1026.59960938 -328.280273438 1017.31933594 c 0,17,18
 -334.080078125 1001.08007812 -334.080078125 1001.08007812 -476.759765625 994.120117188 c 2,19,-1
 -526.639648438 991.799804688 l 1,20,-1
 -494.16015625 953.51953125 l 1,21,22
 -453.559570312 912.919921875 -453.559570312 912.919921875 -453.559570312 888.559570312 c 0,23,24
 -453.559570312 885.080078125 -453.559570312 885.080078125 -457.619628906 876.379882812 c 128,-1,25
 -461.6796875 867.6796875 -461.6796875 867.6796875 -481.979980469 865.939941406 c 128,-1,26
 -502.280273438 864.200195312 -502.280273438 864.200195312 -586.959960938 858.399414062 c 2,27,-1
 -689.040039062 852.599609375 l 1,28,-1
 -656.559570312 814.319335938 l 1,29,30
 -633.360351562 785.319335938 -633.360351562 785.319335938 -633.360351562 775.459472656 c 128,-1,31
 -633.360351562 765.599609375 -633.360351562 765.599609375 -639.16015625 759.799804688 c 0,32,33
 -655.400390625 740.080078125 -655.400390625 740.080078125 -677.440429688 740.080078125 c 0,0,1
-278.400390625 965.120117188 m 0,34,35
 -278.400390625 968.599609375 -278.400390625 968.599609375 -274.919921875 973.240234375 c 256,36,37
 -271.440429688 977.879882812 -271.440429688 977.879882812 -262.16015625 1002.24023438 c 1,38,-1
 -258.6796875 1017.31933594 l 2,39,40
 -257.51953125 1024.28027344 -257.51953125 1024.28027344 -251.719726562 1025.43994141 c 128,-1,41
 -245.919921875 1026.59960938 -245.919921875 1026.59960938 -214.020019531 1026.59960938 c 128,-1,42
 -182.120117188 1026.59960938 -182.120117188 1026.59960938 -176.899902344 1024.85986328 c 128,-1,43
 -171.6796875 1023.12011719 -171.6796875 1023.12011719 -176.899902344 1015.58007812 c 128,-1,44
 -182.120117188 1008.04003906 -182.120117188 1008.04003906 -186.180175781 993.540039062 c 128,-1,45
 -190.240234375 979.040039062 -190.240234375 979.040039062 -191.400390625 976.139648438 c 128,-1,46
 -192.559570312 973.240234375 -192.559570312 973.240234375 -194.299804688 966.279785156 c 0,47,48
 -197.200032541 954.6796875 -197.200032541 954.6796875 -237.799804688 954.6796875 c 128,-1,49
 -278.400390625 954.6796875 -278.400390625 954.6796875 -278.400390625 965.120117188 c 0,34,35
EndSplineSet
EndChar

StartChar: v
Encoding: 118 118 27
Width: 46
VWidth: 1392
GlyphClass: 1
Flags: W
LayerCount: 2
Back
SplineSet
-201 281 m 0,1,2
 -234 281 -234 281 -287 337 c 0,3,4
 -311 365 -311 365 -322 379 c 0,5,6
 -338 398 -338 398 -338 402 c 0,7,8
 -338 413 -338 413 -162 413 c 0,9,10
 -72 413 -72 413 -24 411 c 0,11,12
 12 408 12 408 10 400 c 0,13,14
 6 388 6 388 -103 383 c 2,15,-1
 -211 378 l 1,16,-1
 -183 345 l 2,17,18
 -163 320 -163 320 -163 311 c 0,19,20
 -163 303 -163 303 -168 298 c 0,21,0
 -182 281 -182 281 -201 281 c 0,1,2
EndSplineSet
Fore
SplineSet
-186.759765625 557.959960938 m 0,1,2
 -237.797921212 557.959960938 -237.797921212 557.959960938 -327.120117188 671.639648438 c 0,3,4
 -345.6796875 693.6796875 -345.6796875 693.6796875 -345.6796875 698.3203125 c 0,5,6
 -345.6796875 711.080078125 -345.6796875 711.080078125 -191.399902344 711.080078125 c 128,-1,7
 -37.1201171875 711.080078125 -37.1201171875 711.080078125 18.5595703125 708.759765625 c 0,8,9
 60.3203125 705.280273438 60.3203125 705.280273438 58 696 c 0,10,11
 53.3603515625 682.080078125 53.3603515625 682.080078125 -73.080078125 676.280273438 c 2,12,-1
 -198.360351562 670.48046875 l 1,13,-1
 -165.879882812 632.200195312 l 1,14,15
 -142.6796875 603.200195312 -142.6796875 603.200195312 -142.6796875 593.340332031 c 128,-1,16
 -142.6796875 583.48046875 -142.6796875 583.48046875 -148.48046875 577.6796875 c 0,17,0
 -164.719726562 557.959960938 -164.719726562 557.959960938 -186.759765625 557.959960938 c 0,1,2
EndSplineSet
EndChar

StartChar: w
Encoding: 119 119 28
Width: 46
VWidth: 1392
GlyphClass: 1
Flags: W
LayerCount: 2
Back
Refer: 23 113 N 1 0 0 1 0 230 2
Fore
SplineSet
-677.440429688 740.080078125 m 0,0,1
 -728.48297986 740.080078125 -728.48297986 740.080078125 -817.799804688 853.759765625 c 0,2,3
 -836.360351562 875.799804688 -836.360351562 875.799804688 -836.360351562 880.439453125 c 0,4,5
 -836.360351562 893.200195312 -836.360351562 893.200195312 -655.400390625 893.200195312 c 0,6,7
 -597.400390625 893.200195312 -597.400390625 893.200195312 -580 892.040039062 c 1,8,9
 -611.3203125 914.080078125 -611.3203125 914.080078125 -654.240234375 955.83984375 c 128,-1,10
 -697.16015625 997.599609375 -697.16015625 997.599609375 -697.16015625 1008.04003906 c 0,11,12
 -697.16015625 1013.83984375 -697.16015625 1013.83984375 -657.140136719 1017.31982422 c 128,-1,13
 -617.120117188 1020.79980469 -617.120117188 1020.79980469 -540.560058594 1020.79980469 c 128,-1,14
 -464 1020.79980469 -464 1020.79980469 -443.120117188 1019.63964844 c 1,15,16
 -461.6796875 1034.71972656 -461.6796875 1034.71972656 -504.01953125 1076.47949219 c 128,-1,17
 -546.360351562 1118.24023438 -546.360351562 1118.24023438 -546.360351562 1124.62011719 c 128,-1,18
 -546.360351562 1131 -546.360351562 1131 -515.040039062 1134.47949219 c 0,19,20
 -473.280273438 1136.79980469 -473.280273438 1136.79980469 -378.740234375 1136.79980469 c 128,-1,21
 -284.200195312 1136.79980469 -284.200195312 1136.79980469 -228.51953125 1134.47949219 c 0,22,23
 -189.080078125 1131 -189.080078125 1131 -189.080078125 1122.87988281 c 256,24,25
 -189.080078125 1114.75976562 -189.080078125 1114.75976562 -214.020019531 1111.27978516 c 128,-1,26
 -238.959960938 1107.79980469 -238.959960938 1107.79980469 -320.16015625 1102 c 2,27,-1
 -399.040039062 1096.20019531 l 1,28,-1
 -366.559570312 1057.91992188 l 2,29,30
 -343.360351562 1031.24023438 -343.360351562 1031.24023438 -343.360351562 1020.22021484 c 128,-1,31
 -343.360351562 1009.20019531 -343.360351562 1009.20019531 -352.060058594 999.919921875 c 128,-1,32
 -360.759765625 990.639648438 -360.759765625 990.639648438 -377.580078125 987.739746094 c 128,-1,33
 -394.400390625 984.83984375 -394.400390625 984.83984375 -435 984.83984375 c 1,34,-1
 -499.959960938 982.51953125 l 1,35,-1
 -549.83984375 980.200195312 l 1,36,-1
 -517.360351562 941.919921875 l 1,37,38
 -487.200195312 911.759765625 -487.200195312 911.759765625 -481.979980469 903.639648438 c 128,-1,39
 -476.759765625 895.51953125 -476.759765625 895.51953125 -476.759765625 886.240234375 c 0,40,41
 -476.759765625 871.16015625 -476.759765625 871.16015625 -499.959960938 867.680175781 c 128,-1,42
 -523.16015625 864.200195312 -523.16015625 864.200195312 -574.200195312 860.719726562 c 2,43,-1
 -689.040039062 852.599609375 l 1,44,-1
 -656.559570312 814.319335938 l 1,45,46
 -633.360351562 785.319335938 -633.360351562 785.319335938 -633.360351562 775.459472656 c 128,-1,47
 -633.360351562 765.599609375 -633.360351562 765.599609375 -639.16015625 759.799804688 c 0,48,49
 -655.400390625 740.080078125 -655.400390625 740.080078125 -677.440429688 740.080078125 c 0,0,1
EndSplineSet
EndChar

StartChar: x
Encoding: 120 120 29
Width: 46
VWidth: 1392
GlyphClass: 1
Flags: W
LayerCount: 2
Back
SplineSet
-643 458 m 0,1,2
 -676 458 -676 458 -729 514 c 0,3,4
 -753 542 -753 542 -764 556 c 0,5,6
 -780 575 -780 575 -780 579 c 0,7,8
 -780 590 -780 590 -604 590 c 0,9,10
 -514 590 -514 590 -466 588 c 0,11,12
 -430 585 -430 585 -432 577 c 0,13,14
 -436 565 -436 565 -545 560 c 2,15,-1
 -653 555 l 1,16,-1
 -625 522 l 2,17,18
 -605 497 -605 497 -605 488 c 0,19,20
 -605 480 -605 480 -610 475 c 0,21,0
 -624 458 -624 458 -643 458 c 0,1,2
EndSplineSet
Fore
SplineSet
-699.48046875 763.280273438 m 0,1,2
 -750.523018923 763.280273438 -750.523018923 763.280273438 -839.83984375 876.959960938 c 0,3,4
 -858.400390625 899 -858.400390625 899 -858.400390625 903.639648438 c 0,5,6
 -858.400390625 916.400390625 -858.400390625 916.400390625 -704.120117188 916.400390625 c 128,-1,7
 -549.83984375 916.400390625 -549.83984375 916.400390625 -494.16015625 914.080078125 c 0,8,9
 -452.400390625 910.599609375 -452.400390625 910.599609375 -454.719726562 901.3203125 c 0,10,11
 -459.360351562 887.400390625 -459.360351562 887.400390625 -585.799804688 881.599609375 c 2,12,-1
 -711.080078125 875.799804688 l 1,13,-1
 -678.599609375 837.51953125 l 1,14,15
 -655.400390625 808.51953125 -655.400390625 808.51953125 -655.400390625 798.659667969 c 128,-1,16
 -655.400390625 788.799804688 -655.400390625 788.799804688 -661.200195312 783 c 0,17,0
 -677.440429688 763.280273438 -677.440429688 763.280273438 -699.48046875 763.280273438 c 0,1,2
EndSplineSet
EndChar

StartChar: z
Encoding: 122 122 30
Width: 46
VWidth: 1392
GlyphClass: 1
Flags: W
LayerCount: 2
Back
SplineSet
-583 208 m 0,1,2
 -616 208 -616 208 -669 264 c 0,3,4
 -693 292 -693 292 -704 306 c 0,5,6
 -720 325 -720 325 -720 329 c 0,7,8
 -720 340 -720 340 -544 340 c 0,9,10
 -454 340 -454 340 -406 338 c 0,11,12
 -370 335 -370 335 -372 327 c 0,13,14
 -376 315 -376 315 -485 310 c 2,15,-1
 -593 305 l 1,16,-1
 -565 272 l 2,17,18
 -545 247 -545 247 -545 238 c 0,19,20
 -545 230 -545 230 -550 225 c 0,21,0
 -564 208 -564 208 -583 208 c 0,1,2
EndSplineSet
Fore
SplineSet
-629.879882812 473.280273438 m 0,1,2
 -680.923409548 473.280273438 -680.923409548 473.280273438 -770.240234375 586.959960938 c 0,3,4
 -788.799804688 609 -788.799804688 609 -788.799804688 613.639648438 c 0,5,6
 -788.799804688 626.400390625 -788.799804688 626.400390625 -634.520019531 626.400390625 c 128,-1,7
 -480.240234375 626.400390625 -480.240234375 626.400390625 -424.559570312 624.080078125 c 0,8,9
 -382.799804688 620.599609375 -382.799804688 620.599609375 -385.120117188 611.3203125 c 0,10,11
 -389.759765625 597.400390625 -389.759765625 597.400390625 -516.200195312 591.599609375 c 2,12,-1
 -641.48046875 585.799804688 l 1,13,-1
 -609 547.51953125 l 1,14,15
 -585.799804688 518.51953125 -585.799804688 518.51953125 -585.799804688 508.659667969 c 128,-1,16
 -585.799804688 498.799804688 -585.799804688 498.799804688 -591.599609375 493 c 0,17,0
 -607.83984375 473.280273438 -607.83984375 473.280273438 -629.879882812 473.280273438 c 0,1,2
EndSplineSet
EndChar

StartChar: uni03A9
Encoding: 937 937 31
Width: 46
VWidth: 1392
GlyphClass: 1
Flags: W
LayerCount: 2
Back
SplineSet
-320 298 m 0,1,2
 -320 301 -320 301 -317 305 c 256,3,4
 -314 309 -314 309 -306 330 c 2,5,-1
 -301 343 l 2,6,7
 -300 349 -300 349 -294 350 c 0,8,9
 -290 351 -290 351 -266 351 c 0,10,11
 -237 351 -237 351 -233 350 c 0,12,13
 -228 348 -228 348 -231 344 c 0,14,15
 -237 335 -237 335 -243 312 c 2,16,-1
 -247 300 l 2,17,18
 -250 292 -250 292 -257 291 c 0,19,20
 -267 289 -267 289 -285 289 c 0,21,0
 -320 289 -320 289 -320 298 c 0,1,2
-583 208 m 0,23,24
 -616 208 -616 208 -669 264 c 0,25,26
 -693 292 -693 292 -704 306 c 0,27,28
 -720 325 -720 325 -720 329 c 0,29,30
 -720 340 -720 340 -544 340 c 0,31,32
 -454 340 -454 340 -406 338 c 0,33,34
 -370 335 -370 335 -372 327 c 0,35,36
 -376 315 -376 315 -485 310 c 2,37,-1
 -593 305 l 1,38,-1
 -565 272 l 2,39,40
 -545 247 -545 247 -545 238 c 0,41,42
 -545 230 -545 230 -550 225 c 0,43,22
 -564 208 -564 208 -583 208 c 0,23,24
EndSplineSet
Fore
SplineSet
-324.799804688 577.6796875 m 0,1,2
 -324.799804688 581.16015625 -324.799804688 581.16015625 -321.3203125 585.799804688 c 256,3,4
 -317.83984375 590.440429688 -317.83984375 590.440429688 -308.559570312 614.799804688 c 2,5,-1
 -302.759765625 629.879882812 l 1,6,7
 -301.599609375 636.83984375 -301.599609375 636.83984375 -295.799804688 638 c 128,-1,8
 -290 639.16015625 -290 639.16015625 -259.259765625 639.16015625 c 128,-1,9
 -228.51953125 639.16015625 -228.51953125 639.16015625 -223.299804688 637.419921875 c 128,-1,10
 -218.080078125 635.6796875 -218.080078125 635.6796875 -223.299804688 628.139648438 c 128,-1,11
 -228.51953125 620.599609375 -228.51953125 620.599609375 -235.48046875 593.919921875 c 1,12,-1
 -240.120117188 580 l 2,13,14
 -243.599609375 570.719726562 -243.599609375 570.719726562 -253.459960938 568.979980469 c 128,-1,15
 -263.3203125 567.240234375 -263.3203125 567.240234375 -294.060058594 567.240234375 c 128,-1,0
 -324.799804688 567.240234375 -324.799804688 567.240234375 -324.799804688 577.6796875 c 0,1,2
-629.879882812 473.280273438 m 0,16,17
 -680.923409548 473.280273438 -680.923409548 473.280273438 -770.240234375 586.959960938 c 0,18,19
 -788.799804688 609 -788.799804688 609 -788.799804688 613.639648438 c 0,20,21
 -788.799804688 626.400390625 -788.799804688 626.400390625 -634.520019531 626.400390625 c 128,-1,22
 -480.240234375 626.400390625 -480.240234375 626.400390625 -424.559570312 624.080078125 c 0,23,24
 -382.799804688 620.599609375 -382.799804688 620.599609375 -385.120117188 611.3203125 c 0,25,26
 -389.759765625 597.400390625 -389.759765625 597.400390625 -516.200195312 591.599609375 c 2,27,-1
 -641.48046875 585.799804688 l 1,28,-1
 -609 547.51953125 l 1,29,30
 -585.799804688 518.51953125 -585.799804688 518.51953125 -585.799804688 508.659667969 c 128,-1,31
 -585.799804688 498.799804688 -585.799804688 498.799804688 -591.599609375 493 c 0,32,33
 -607.83984375 473.280273438 -607.83984375 473.280273438 -629.879882812 473.280273438 c 0,16,17
EndSplineSet
EndChar

StartChar: uni03BC
Encoding: 956 956 32
Width: 46
VWidth: 1392
GlyphClass: 1
Flags: W
LayerCount: 2
Back
Refer: 31 937 N 1 0 0 1 0 0 0
Fore
SplineSet
-324.799804688 577.6796875 m 0,0,1
 -324.799804688 581.16015625 -324.799804688 581.16015625 -321.3203125 585.799804688 c 256,2,3
 -317.83984375 590.440429688 -317.83984375 590.440429688 -308.559570312 614.799804688 c 2,4,-1
 -302.759765625 629.879882812 l 1,5,6
 -301.599609375 636.83984375 -301.599609375 636.83984375 -295.799804688 638 c 128,-1,7
 -290 639.16015625 -290 639.16015625 -259.259765625 639.16015625 c 128,-1,8
 -228.51953125 639.16015625 -228.51953125 639.16015625 -223.299804688 637.419921875 c 128,-1,9
 -218.080078125 635.6796875 -218.080078125 635.6796875 -223.299804688 628.139648438 c 128,-1,10
 -228.51953125 620.599609375 -228.51953125 620.599609375 -235.48046875 593.919921875 c 1,11,-1
 -240.120117188 580 l 2,12,13
 -243.599609375 570.719726562 -243.599609375 570.719726562 -253.459960938 568.979980469 c 128,-1,14
 -263.3203125 567.240234375 -263.3203125 567.240234375 -294.060058594 567.240234375 c 128,-1,15
 -324.799804688 567.240234375 -324.799804688 567.240234375 -324.799804688 577.6796875 c 0,0,1
-629.879882812 473.280273438 m 0,16,17
 -680.923409548 473.280273438 -680.923409548 473.280273438 -770.240234375 586.959960938 c 0,18,19
 -788.799804688 609 -788.799804688 609 -788.799804688 613.639648438 c 0,20,21
 -788.799804688 626.400390625 -788.799804688 626.400390625 -634.520019531 626.400390625 c 128,-1,22
 -480.240234375 626.400390625 -480.240234375 626.400390625 -424.559570312 624.080078125 c 0,23,24
 -382.799804688 620.599609375 -382.799804688 620.599609375 -385.120117188 611.3203125 c 0,25,26
 -389.759765625 597.400390625 -389.759765625 597.400390625 -516.200195312 591.599609375 c 2,27,-1
 -641.48046875 585.799804688 l 1,28,-1
 -609 547.51953125 l 1,29,30
 -585.799804688 518.51953125 -585.799804688 518.51953125 -585.799804688 508.659667969 c 128,-1,31
 -585.799804688 498.799804688 -585.799804688 498.799804688 -591.599609375 493 c 0,32,33
 -607.83984375 473.280273438 -607.83984375 473.280273438 -629.879882812 473.280273438 c 0,16,17
EndSplineSet
EndChar

StartChar: period
Encoding: 46 46 33
Width: 46
VWidth: 1392
GlyphClass: 1
Flags: W
LayerCount: 2
Back
SplineSet
-613 225 m 0,1,2
 -618 230 -618 230 -618 238 c 0,3,4
 -618 247 -618 247 -598 272 c 2,5,-1
 -570 305 l 1,6,-1
 -658 310 l 2,7,8
 -731 315 -731 315 -746 317 c 0,9,10
 -766 318 -766 318 -771 327 c 0,11,12
 -773 333 -773 333 -773 336 c 0,13,14
 -773 357 -773 357 -738 392 c 2,15,-1
 -706 425 l 2,16,17
 -698 433 -698 433 -692 444 c 0,18,19
 -686 454 -686 454 -680.5 457 c 128,-1,20
 -675 460 -675 460 -661 460 c 0,21,22
 -637 460 -637 460 -610 457 c 128,-1,23
 -583 454 -583 454 -583 449 c 0,24,25
 -583 446 -583 446 -598 426 c 0,26,27
 -649 363 -649 363 -684 339 c 1,28,29
 -669 340 -669 340 -599 340 c 0,30,31
 -443 340 -443 340 -443 329 c 0,32,33
 -443 326 -443 326 -458 306 c 2,34,-1
 -494 264 l 2,35,36
 -547 208 -547 208 -580 208 c 0,37,0
 -599 208 -599 208 -613 225 c 0,1,2
EndSplineSet
Fore
SplineSet
-664.6796875 493 m 0,1,2
 -670.48046875 498.799804688 -670.48046875 498.799804688 -670.48046875 508.659667969 c 0,3,4
 -670.48046875 518.51953125 -670.48046875 518.51953125 -647.280273438 547.51953125 c 1,5,-1
 -614.799804688 585.799804688 l 1,6,-1
 -716.879882812 591.599609375 l 2,7,8
 -801.559570312 597.400390625 -801.559570312 597.400390625 -821.859863281 599.140136719 c 0,9,10
 -842.16015625 600.879882812 -842.16015625 600.879882812 -846.220214844 609.580078125 c 0,11,12
 -850.280273438 618.280273438 -850.280273438 618.280273438 -850.280273438 621.759765625 c 0,13,14
 -850.280273438 646.120117188 -850.280273438 646.120117188 -809.6796875 686.719726562 c 2,15,-1
 -772.559570312 725 l 2,16,17
 -763.280273438 734.280273438 -763.280273438 734.280273438 -756.3203125 746.459960938 c 0,18,19
 -749.360351562 758.639648438 -749.360351562 758.639648438 -742.98046875 762.120117188 c 128,-1,20
 -736.599609375 765.599609375 -736.599609375 765.599609375 -714.559570312 765.599609375 c 0,21,22
 -692.51953125 765.599609375 -692.51953125 765.599609375 -661.200195312 762.120117188 c 128,-1,23
 -629.879882812 758.639648438 -629.879882812 758.639648438 -629.879882812 754 c 0,24,25
 -629.879882812 749.360351562 -629.879882812 749.360351562 -647.280273438 726.16015625 c 0,26,27
 -706.440429688 653.080078125 -706.440429688 653.080078125 -747.040039062 625.240234375 c 1,28,29
 -729.639648438 626.400390625 -729.639648438 626.400390625 -648.440429688 626.400390625 c 0,30,31
 -467.48046875 626.400390625 -467.48046875 626.400390625 -467.48046875 613.639648438 c 0,32,33
 -467.48046875 610.16015625 -467.48046875 610.16015625 -484.879882812 586.959960938 c 1,34,-1
 -526.639648438 538.240234375 l 1,35,36
 -588.120117188 473.280273438 -588.120117188 473.280273438 -626.400390625 473.280273438 c 0,37,0
 -648.440429688 473.280273438 -648.440429688 473.280273438 -664.6796875 493 c 0,1,2
EndSplineSet
EndChar

StartChar: comma
Encoding: 44 44 34
Width: 46
VWidth: 1392
GlyphClass: 1
Flags: W
LayerCount: 2
Back
SplineSet
-593 225 m 0,1,2
 -598 230 -598 230 -598 238 c 0,3,4
 -598 247 -598 247 -578 272 c 2,5,-1
 -550 305 l 1,6,-1
 -658 310 l 2,7,8
 -707 311 -707 311 -732 317 c 0,9,10
 -751 321 -751 321 -751 329 c 0,11,12
 -751 335 -751 335 -720 338 c 0,13,14
 -680 340 -680 340 -599 340 c 0,15,16
 -423 340 -423 340 -423 329 c 0,17,18
 -423 326 -423 326 -438 306 c 2,19,-1
 -474 264 l 2,20,21
 -527 208 -527 208 -560 208 c 0,22,0
 -579 208 -579 208 -593 225 c 0,1,2
EndSplineSet
Fore
SplineSet
-641.48046875 493 m 0,1,2
 -647.280273438 498.799804688 -647.280273438 498.799804688 -647.280273438 508.659667969 c 128,-1,3
 -647.280273438 518.51953125 -647.280273438 518.51953125 -624.080078125 547.51953125 c 1,4,-1
 -591.599609375 585.799804688 l 1,5,-1
 -716.879882812 591.599609375 l 1,6,7
 -824.759765625 593.801542245 -824.759765625 593.801542245 -824.759765625 613.639648438 c 0,8,9
 -824.759765625 626.400390625 -824.759765625 626.400390625 -634.520019531 626.400390625 c 128,-1,10
 -444.280273438 626.400390625 -444.280273438 626.400390625 -444.280273438 613.639648438 c 0,11,12
 -444.280273438 610.16015625 -444.280273438 610.16015625 -461.6796875 586.959960938 c 1,13,-1
 -503.440429688 538.240234375 l 1,14,15
 -564.919921875 473.280273438 -564.919921875 473.280273438 -603.200195312 473.280273438 c 0,16,0
 -625.240234375 473.280273438 -625.240234375 473.280273438 -641.48046875 493 c 0,1,2
EndSplineSet
EndChar

StartChar: slash
Encoding: 47 47 35
Width: 46
VWidth: 1392
GlyphClass: 1
Flags: W
LayerCount: 2
Back
SplineSet
-613 225 m 4,1,2
 -618 230 -618 230 -618 238 c 4,3,4
 -618 247 -618 247 -598 272 c 6,5,-1
 -570 305 l 5,6,-1
 -658 310 l 6,7,8
 -731 315 -731 315 -746 317 c 4,9,10
 -766 318 -766 318 -771 327 c 4,11,12
 -773 333 -773 333 -773 336 c 4,13,14
 -773 357 -773 357 -738 392 c 5,15,-1
 -710 425 l 5,16,-1
 -753 427 l 6,17,18
 -876 433 -876 433 -881 447 c 4,19,20
 -883 455 -883 455 -844 458 c 4,21,22
 -794 460 -794 460 -694 460 c 4,23,24
 -652 460 -652 460 -617 457 c 4,25,26
 -583 454 -583 454 -583 449 c 4,27,28
 -583 446 -583 446 -598 426 c 4,29,30
 -649 363 -649 363 -684 339 c 5,31,32
 -669 340 -669 340 -599 340 c 4,33,34
 -443 340 -443 340 -443 329 c 4,35,36
 -443 326 -443 326 -458 306 c 6,37,-1
 -494 264 l 6,38,39
 -547 208 -547 208 -580 208 c 4,40,0
 -599 208 -599 208 -613 225 c 4,1,2
EndSplineSet
Fore
SplineSet
-975.559570312 750.51953125 m 4,0,1
 -977.879882812 759.799804688 -977.879882812 759.799804688 -926.259765625 762.699707031 c 132,-1,2
 -874.639648438 765.599609375 -874.639648438 765.599609375 -752.259765625 765.599609375 c 132,-1,3
 -629.879882812 765.599609375 -629.879882812 765.599609375 -629.879882812 752.83984375 c 4,4,5
 -629.879882812 749.360351562 -629.879882812 749.360351562 -647.280273438 726.16015625 c 4,6,7
 -706.440429688 653.080078125 -706.440429688 653.080078125 -747.040039062 625.240234375 c 5,8,9
 -729.639648438 626.400390625 -729.639648438 626.400390625 -648.440429688 626.400390625 c 4,10,11
 -467.48046875 626.400390625 -467.48046875 626.400390625 -467.48046875 613.639648438 c 4,12,13
 -467.48046875 610.16015625 -467.48046875 610.16015625 -484.879882812 586.959960938 c 5,14,-1
 -526.639648438 538.240234375 l 5,15,16
 -588.120117188 473.280273438 -588.120117188 473.280273438 -626.400390625 473.280273438 c 4,17,18
 -648.440429688 473.280273438 -648.440429688 473.280273438 -664.6796875 493 c 4,19,20
 -670.48046875 498.799804688 -670.48046875 498.799804688 -670.48046875 508.659667969 c 132,-1,21
 -670.48046875 518.51953125 -670.48046875 518.51953125 -647.280273438 547.51953125 c 5,22,-1
 -614.799804688 585.799804688 l 5,23,-1
 -716.879882812 591.599609375 l 6,24,25
 -801.559570312 597.400390625 -801.559570312 597.400390625 -821.859863281 599.140136719 c 132,-1,26
 -842.16015625 600.879882812 -842.16015625 600.879882812 -846.220214844 609.580078125 c 132,-1,27
 -850.280273438 618.280273438 -850.280273438 618.280273438 -850.280273438 621.759765625 c 4,28,29
 -850.280273438 646.120117188 -850.280273438 646.120117188 -809.6796875 686.719726562 c 5,30,-1
 -777.200195312 725 l 5,31,-1
 -827.080078125 727.3203125 l 6,32,33
 -969.759765625 734.280273438 -969.759765625 734.280273438 -975.559570312 750.51953125 c 4,0,1
EndSplineSet
EndChar

StartChar: backslash
Encoding: 92 92 36
Width: 46
VWidth: 1392
GlyphClass: 1
Flags: W
LayerCount: 2
Back
SplineSet
-971.5 598 m 128,-1,1
 -925 664 -925 664 -853 701 c 0,2,3
 -783 738 -783 738 -698 738 c 0,4,5
 -614 738 -614 738 -542.5 701 c 128,-1,6
 -471 664 -471 664 -424 598 c 0,7,8
 -378 532 -378 532 -367 448 c 1,9,-1
 -365 485 l 1,10,11
 -365 572 -365 572 -410 649.5 c 128,-1,12
 -455 727 -455 727 -532 774 c 0,13,14
 -608 820 -608 820 -698 820 c 256,15,16
 -788 820 -788 820 -864.5 774 c 128,-1,17
 -941 728 -941 728 -986 650 c 0,18,19
 -1031 573 -1031 573 -1031 486 c 0,20,21
 -1031 466 -1031 466 -1029 448 c 1,22,0
 -1018 532 -1018 532 -971.5 598 c 128,-1,1
-671 517 m 128,-1,24
 -682 528 -682 528 -698 528 c 0,25,26
 -715 528 -715 528 -727 517 c 128,-1,27
 -739 506 -739 506 -739 489 c 256,28,29
 -739 472 -739 472 -726.5 460 c 128,-1,30
 -714 448 -714 448 -698 448 c 0,31,32
 -681 448 -681 448 -670.5 460.5 c 128,-1,33
 -660 473 -660 473 -660 489 c 0,34,23
 -660 506 -660 506 -671 517 c 128,-1,24
EndSplineSet
Fore
SplineSet
-1080.54003906 925.6796875 m 128,-1,1
 -1026.59960938 1002.24023438 -1026.59960938 1002.24023438 -944.239746094 1045.16015625 c 0,2,3
 -861.879882812 1088.08007812 -861.879882812 1088.08007812 -763.859863281 1088.08007812 c 0,4,5
 -665.83984375 1088.08007812 -665.83984375 1088.08007812 -582.900390625 1045.16015625 c 128,-1,6
 -499.959960938 1002.24023438 -499.959960938 1002.24023438 -446.020019531 925.680175781 c 0,7,8
 -392.080078125 849.120117188 -392.080078125 849.120117188 -379.3203125 751.6796875 c 1,9,-1
 -377 794.599609375 l 1,10,11
 -377 895.51953125 -377 895.51953125 -429.200195312 985.419921875 c 128,-1,12
 -481.400390625 1075.3203125 -481.400390625 1075.3203125 -570.140136719 1129.26025391 c 0,13,14
 -658.879882812 1183.20019531 -658.879882812 1183.20019531 -763.280273438 1183.20019531 c 256,15,16
 -867.6796875 1183.20019531 -867.6796875 1183.20019531 -956.419921875 1129.83984375 c 128,-1,17
 -1045.16015625 1076.48046875 -1045.16015625 1076.48046875 -1097.35986328 986.580078125 c 0,18,19
 -1149.55957031 896.6796875 -1149.55957031 896.6796875 -1149.55957031 795.759765625 c 0,20,21
 -1149.55957031 772.559570312 -1149.55957031 772.559570312 -1147.24023438 751.6796875 c 1,22,0
 -1134.48046875 849.120117188 -1134.48046875 849.120117188 -1080.54003906 925.6796875 c 128,-1,1
-731.959960938 831.719726562 m 128,-1,24
 -744.719726562 844.48046875 -744.719726562 844.48046875 -763.859863281 844.48046875 c 0,25,26
 -783 844.48046875 -783 844.48046875 -796.919921875 831.719726562 c 128,-1,27
 -810.83984375 818.959960938 -810.83984375 818.959960938 -810.83984375 799.240234375 c 256,28,29
 -810.83984375 779.51953125 -810.83984375 779.51953125 -796.33984375 765.599609375 c 128,-1,30
 -781.83984375 751.6796875 -781.83984375 751.6796875 -762.699707031 751.6796875 c 0,31,32
 -743.559570312 751.6796875 -743.559570312 751.6796875 -731.379882812 766.1796875 c 128,-1,33
 -719.200195312 780.6796875 -719.200195312 780.6796875 -719.200195312 799.819824219 c 0,34,23
 -719.200195312 818.959960938 -719.200195312 818.959960938 -731.959960938 831.719726562 c 128,-1,24
EndSplineSet
EndChar

StartChar: florin
Encoding: 402 402 37
Width: 46
VWidth: 1392
GlyphClass: 1
Flags: W
LayerCount: 2
Back
Refer: 15 229 N 1 0 0 1 0 0 0
Fore
SplineSet
-677.440429688 473.280273438 m 0,0,1
 -728.48297986 473.280273438 -728.48297986 473.280273438 -817.799804688 586.959960938 c 0,2,3
 -836.360351562 609 -836.360351562 609 -836.360351562 613.639648438 c 0,4,5
 -836.360351562 626.400390625 -836.360351562 626.400390625 -655.400390625 626.400390625 c 0,6,7
 -574.200195312 626.400390625 -574.200195312 626.400390625 -556.799804688 625.240234375 c 1,8,9
 -600.879882812 655.400390625 -600.879882812 655.400390625 -655.400390625 726.16015625 c 0,10,11
 -673.959960938 748.200195312 -673.959960938 748.200195312 -673.959960938 753.419921875 c 128,-1,12
 -673.959960938 758.639648438 -673.959960938 758.639648438 -633.939941406 762.119628906 c 128,-1,13
 -593.919921875 765.599609375 -593.919921875 765.599609375 -512.140136719 765.599609375 c 128,-1,14
 -430.360351562 765.599609375 -430.360351562 765.599609375 -370.040039062 763.280273438 c 0,15,16
 -325.959960938 759.799804688 -325.959960938 759.799804688 -328.280273438 750.51953125 c 0,17,18
 -334.080078125 734.280273438 -334.080078125 734.280273438 -476.759765625 727.3203125 c 2,19,-1
 -526.639648438 725 l 1,20,-1
 -494.16015625 686.719726562 l 1,21,22
 -453.559570312 646.120117188 -453.559570312 646.120117188 -453.559570312 621.759765625 c 0,23,24
 -453.559570312 618.280273438 -453.559570312 618.280273438 -457.619628906 609.580078125 c 128,-1,25
 -461.6796875 600.879882812 -461.6796875 600.879882812 -481.979980469 599.140136719 c 128,-1,26
 -502.280273438 597.400390625 -502.280273438 597.400390625 -586.959960938 591.599609375 c 2,27,-1
 -689.040039062 585.799804688 l 1,28,-1
 -656.559570312 547.51953125 l 1,29,30
 -633.360351562 518.51953125 -633.360351562 518.51953125 -633.360351562 508.659667969 c 128,-1,31
 -633.360351562 498.799804688 -633.360351562 498.799804688 -639.16015625 493 c 0,32,33
 -655.400390625 473.280273438 -655.400390625 473.280273438 -677.440429688 473.280273438 c 0,0,1
-278.400390625 698.3203125 m 0,34,35
 -278.400390625 701.799804688 -278.400390625 701.799804688 -274.919921875 706.440429688 c 256,36,37
 -271.440429688 711.080078125 -271.440429688 711.080078125 -262.16015625 735.440429688 c 1,38,-1
 -258.6796875 750.51953125 l 2,39,40
 -257.51953125 757.48046875 -257.51953125 757.48046875 -251.719726562 758.640136719 c 128,-1,41
 -245.919921875 759.799804688 -245.919921875 759.799804688 -214.020019531 759.799804688 c 128,-1,42
 -182.120117188 759.799804688 -182.120117188 759.799804688 -176.899902344 758.060058594 c 128,-1,43
 -171.6796875 756.3203125 -171.6796875 756.3203125 -176.899902344 748.780273438 c 128,-1,44
 -182.120117188 741.240234375 -182.120117188 741.240234375 -186.180175781 726.740234375 c 128,-1,45
 -190.240234375 712.240234375 -190.240234375 712.240234375 -191.400390625 709.33984375 c 128,-1,46
 -192.559570312 706.440429688 -192.559570312 706.440429688 -194.299804688 699.479980469 c 0,47,48
 -197.200032541 687.879882812 -197.200032541 687.879882812 -237.799804688 687.879882812 c 128,-1,49
 -278.400390625 687.879882812 -278.400390625 687.879882812 -278.400390625 698.3203125 c 0,34,35
EndSplineSet
EndChar

StartChar: less
Encoding: 60 60 38
Width: 46
VWidth: 1392
GlyphClass: 1
Flags: W
LayerCount: 2
Back
Refer: 30 122 S 1 0 0 1 310 20 2
Fore
SplineSet
-270.280273438 496.48046875 m 0,0,1
 -321.323800173 496.48046875 -321.323800173 496.48046875 -410.640625 610.16015625 c 0,2,3
 -429.200195312 632.200195312 -429.200195312 632.200195312 -429.200195312 636.83984375 c 0,4,5
 -429.200195312 649.600585938 -429.200195312 649.600585938 -274.920410156 649.600585938 c 128,-1,6
 -120.640625 649.600585938 -120.640625 649.600585938 -64.9599609375 647.280273438 c 0,7,8
 -23.2001953125 643.799804688 -23.2001953125 643.799804688 -25.5205078125 634.520507812 c 0,9,10
 -30.16015625 620.600585938 -30.16015625 620.600585938 -156.600585938 614.799804688 c 2,11,-1
 -281.880859375 609 l 1,12,-1
 -249.400390625 570.719726562 l 1,13,14
 -226.200195312 541.719726562 -226.200195312 541.719726562 -226.200195312 531.859863281 c 128,-1,15
 -226.200195312 522 -226.200195312 522 -232 516.200195312 c 0,16,17
 -248.240234375 496.48046875 -248.240234375 496.48046875 -270.280273438 496.48046875 c 0,0,1
EndSplineSet
EndChar

StartChar: approxequal
Encoding: 8776 8776 39
Width: 46
VWidth: 1392
GlyphClass: 1
Flags: W
LayerCount: 2
Back
SplineSet
-380 548 m 0,1,2
 -380 551 -380 551 -377 555 c 256,3,4
 -374 559 -374 559 -366 580 c 2,5,-1
 -361 593 l 2,6,7
 -360 599 -360 599 -354 600 c 0,8,9
 -350 601 -350 601 -326 601 c 0,10,11
 -297 601 -297 601 -293 600 c 0,12,13
 -288 598 -288 598 -291 594 c 0,14,15
 -297 585 -297 585 -303 562 c 2,16,-1
 -307 550 l 2,17,18
 -310 542 -310 542 -317 541 c 0,19,20
 -327 539 -327 539 -345 539 c 0,21,0
 -380 539 -380 539 -380 548 c 0,1,2
-643 458 m 0,23,24
 -676 458 -676 458 -729 514 c 0,25,26
 -753 542 -753 542 -764 556 c 0,27,28
 -780 575 -780 575 -780 579 c 0,29,30
 -780 590 -780 590 -604 590 c 0,31,32
 -514 590 -514 590 -466 588 c 0,33,34
 -430 585 -430 585 -432 577 c 0,35,36
 -436 565 -436 565 -545 560 c 2,37,-1
 -653 555 l 1,38,-1
 -625 522 l 2,39,40
 -605 497 -605 497 -605 488 c 0,41,42
 -605 480 -605 480 -610 475 c 0,43,22
 -624 458 -624 458 -643 458 c 0,23,24
EndSplineSet
Fore
SplineSet
-394.400390625 867.6796875 m 0,1,2
 -394.400390625 871.16015625 -394.400390625 871.16015625 -390.919921875 875.799804688 c 256,3,4
 -387.440429688 880.440429688 -387.440429688 880.440429688 -378.16015625 904.799804688 c 2,5,-1
 -372.360351562 919.879882812 l 1,6,7
 -371.200195312 926.83984375 -371.200195312 926.83984375 -365.399902344 928 c 128,-1,8
 -359.599609375 929.16015625 -359.599609375 929.16015625 -328.859863281 929.16015625 c 128,-1,9
 -298.120117188 929.16015625 -298.120117188 929.16015625 -292.899902344 927.419921875 c 128,-1,10
 -287.6796875 925.6796875 -287.6796875 925.6796875 -292.899902344 918.139648438 c 128,-1,11
 -298.120117188 910.599609375 -298.120117188 910.599609375 -305.080078125 883.919921875 c 1,12,-1
 -309.719726562 870 l 2,13,14
 -313.200195312 860.719726562 -313.200195312 860.719726562 -323.060058594 858.979980469 c 128,-1,15
 -332.919921875 857.240234375 -332.919921875 857.240234375 -363.66015625 857.240234375 c 128,-1,0
 -394.400390625 857.240234375 -394.400390625 857.240234375 -394.400390625 867.6796875 c 0,1,2
-699.48046875 763.280273438 m 0,16,17
 -750.523018923 763.280273438 -750.523018923 763.280273438 -839.83984375 876.959960938 c 0,18,19
 -858.400390625 899 -858.400390625 899 -858.400390625 903.639648438 c 0,20,21
 -858.400390625 916.400390625 -858.400390625 916.400390625 -704.120117188 916.400390625 c 128,-1,22
 -549.83984375 916.400390625 -549.83984375 916.400390625 -494.16015625 914.080078125 c 0,23,24
 -452.400390625 910.599609375 -452.400390625 910.599609375 -454.719726562 901.3203125 c 0,25,26
 -459.360351562 887.400390625 -459.360351562 887.400390625 -585.799804688 881.599609375 c 2,27,-1
 -711.080078125 875.799804688 l 1,28,-1
 -678.599609375 837.51953125 l 1,29,30
 -655.400390625 808.51953125 -655.400390625 808.51953125 -655.400390625 798.659667969 c 128,-1,31
 -655.400390625 788.799804688 -655.400390625 788.799804688 -661.200195312 783 c 0,32,33
 -677.440429688 763.280273438 -677.440429688 763.280273438 -699.48046875 763.280273438 c 0,16,17
EndSplineSet
EndChar

StartChar: integral
Encoding: 8747 8747 40
Width: 46
VWidth: 1392
GlyphClass: 1
Flags: W
LayerCount: 2
Back
SplineSet
-570 548 m 0,1,2
 -570 551 -570 551 -567 555 c 256,3,4
 -564 559 -564 559 -556 580 c 2,5,-1
 -551 593 l 2,6,7
 -550 599 -550 599 -544 600 c 0,8,9
 -540 601 -540 601 -516 601 c 0,10,11
 -487 601 -487 601 -483 600 c 0,12,13
 -478 598 -478 598 -481 594 c 0,14,15
 -487 585 -487 585 -493 562 c 2,16,-1
 -497 550 l 2,17,18
 -500 542 -500 542 -507 541 c 0,19,20
 -517 539 -517 539 -535 539 c 0,21,0
 -570 539 -570 539 -570 548 c 0,1,2
-833 458 m 0,23,24
 -866 458 -866 458 -919 514 c 0,25,26
 -943 542 -943 542 -954 556 c 0,27,28
 -970 575 -970 575 -970 579 c 0,29,30
 -970 590 -970 590 -794 590 c 0,31,32
 -704 590 -704 590 -656 588 c 0,33,34
 -620 585 -620 585 -622 577 c 0,35,36
 -626 565 -626 565 -735 560 c 2,37,-1
 -843 555 l 1,38,-1
 -815 522 l 2,39,40
 -795 497 -795 497 -795 488 c 0,41,42
 -795 480 -795 480 -800 475 c 0,43,22
 -814 458 -814 458 -833 458 c 0,23,24
EndSplineSet
Fore
SplineSet
-614.799804688 867.6796875 m 0,1,2
 -614.799804688 871.16015625 -614.799804688 871.16015625 -611.3203125 875.799804688 c 256,3,4
 -607.83984375 880.440429688 -607.83984375 880.440429688 -598.559570312 904.799804688 c 2,5,-1
 -592.759765625 919.879882812 l 1,6,7
 -591.599609375 926.83984375 -591.599609375 926.83984375 -585.799804688 928 c 128,-1,8
 -580 929.16015625 -580 929.16015625 -549.259765625 929.16015625 c 128,-1,9
 -518.51953125 929.16015625 -518.51953125 929.16015625 -513.299804688 927.419921875 c 128,-1,10
 -508.080078125 925.6796875 -508.080078125 925.6796875 -513.299804688 918.139648438 c 128,-1,11
 -518.51953125 910.599609375 -518.51953125 910.599609375 -525.48046875 883.919921875 c 1,12,-1
 -530.120117188 870 l 2,13,14
 -533.599609375 860.719726562 -533.599609375 860.719726562 -543.459960938 858.979980469 c 128,-1,15
 -553.3203125 857.240234375 -553.3203125 857.240234375 -584.060058594 857.240234375 c 128,-1,0
 -614.799804688 857.240234375 -614.799804688 857.240234375 -614.799804688 867.6796875 c 0,1,2
-919.879882812 763.280273438 m 0,16,17
 -970.923409548 763.280273438 -970.923409548 763.280273438 -1060.24023438 876.959960938 c 0,18,19
 -1078.79980469 899 -1078.79980469 899 -1078.79980469 903.639648438 c 0,20,21
 -1078.79980469 916.400390625 -1078.79980469 916.400390625 -924.520019531 916.400390625 c 128,-1,22
 -770.240234375 916.400390625 -770.240234375 916.400390625 -714.559570312 914.080078125 c 0,23,24
 -672.799804688 910.599609375 -672.799804688 910.599609375 -675.120117188 901.3203125 c 0,25,26
 -679.759765625 887.400390625 -679.759765625 887.400390625 -806.200195312 881.599609375 c 2,27,-1
 -931.48046875 875.799804688 l 1,28,-1
 -899 837.51953125 l 1,29,30
 -875.799804688 808.51953125 -875.799804688 808.51953125 -875.799804688 798.659667969 c 128,-1,31
 -875.799804688 788.799804688 -875.799804688 788.799804688 -881.599609375 783 c 0,32,33
 -897.83984375 763.280273438 -897.83984375 763.280273438 -919.879882812 763.280273438 c 0,16,17
EndSplineSet
EndChar

StartChar: summation
Encoding: 8721 8721 41
Width: 46
VWidth: 1392
GlyphClass: 1
Flags: W
LayerCount: 2
Back
Refer: 22 339 N 1 0 0 1 0 230 2
Fore
SplineSet
-677.440429688 740.080078125 m 0,0,1
 -728.48297986 740.080078125 -728.48297986 740.080078125 -817.799804688 853.759765625 c 0,2,3
 -836.360351562 875.799804688 -836.360351562 875.799804688 -836.360351562 880.439453125 c 0,4,5
 -836.360351562 893.200195312 -836.360351562 893.200195312 -655.400390625 893.200195312 c 0,6,7
 -597.400390625 893.200195312 -597.400390625 893.200195312 -580 892.040039062 c 1,8,9
 -611.3203125 914.080078125 -611.3203125 914.080078125 -654.240234375 955.83984375 c 128,-1,10
 -697.16015625 997.599609375 -697.16015625 997.599609375 -697.16015625 1008.04003906 c 0,11,12
 -697.16015625 1013.83984375 -697.16015625 1013.83984375 -657.140136719 1017.31982422 c 128,-1,13
 -617.120117188 1020.79980469 -617.120117188 1020.79980469 -540.560058594 1020.79980469 c 128,-1,14
 -464 1020.79980469 -464 1020.79980469 -443.120117188 1019.63964844 c 1,15,16
 -461.6796875 1034.71972656 -461.6796875 1034.71972656 -504.01953125 1076.47949219 c 128,-1,17
 -546.360351562 1118.24023438 -546.360351562 1118.24023438 -546.360351562 1124.62011719 c 128,-1,18
 -546.360351562 1131 -546.360351562 1131 -515.040039062 1134.47949219 c 0,19,20
 -473.280273438 1136.79980469 -473.280273438 1136.79980469 -378.740234375 1136.79980469 c 128,-1,21
 -284.200195312 1136.79980469 -284.200195312 1136.79980469 -228.51953125 1134.47949219 c 0,22,23
 -189.080078125 1131 -189.080078125 1131 -189.080078125 1122.87988281 c 256,24,25
 -189.080078125 1114.75976562 -189.080078125 1114.75976562 -214.020019531 1111.27978516 c 128,-1,26
 -238.959960938 1107.79980469 -238.959960938 1107.79980469 -320.16015625 1102 c 2,27,-1
 -399.040039062 1096.20019531 l 1,28,-1
 -366.559570312 1057.91992188 l 2,29,30
 -343.360351562 1031.24023438 -343.360351562 1031.24023438 -343.360351562 1020.22021484 c 128,-1,31
 -343.360351562 1009.20019531 -343.360351562 1009.20019531 -352.060058594 999.919921875 c 128,-1,32
 -360.759765625 990.639648438 -360.759765625 990.639648438 -377.580078125 987.739746094 c 128,-1,33
 -394.400390625 984.83984375 -394.400390625 984.83984375 -435 984.83984375 c 1,34,-1
 -499.959960938 982.51953125 l 1,35,-1
 -549.83984375 980.200195312 l 1,36,-1
 -517.360351562 941.919921875 l 1,37,38
 -487.200195312 911.759765625 -487.200195312 911.759765625 -481.979980469 903.639648438 c 128,-1,39
 -476.759765625 895.51953125 -476.759765625 895.51953125 -476.759765625 886.240234375 c 0,40,41
 -476.759765625 871.16015625 -476.759765625 871.16015625 -499.959960938 867.680175781 c 128,-1,42
 -523.16015625 864.200195312 -523.16015625 864.200195312 -574.200195312 860.719726562 c 2,43,-1
 -689.040039062 852.599609375 l 1,44,-1
 -656.559570312 814.319335938 l 1,45,46
 -633.360351562 785.319335938 -633.360351562 785.319335938 -633.360351562 775.459472656 c 128,-1,47
 -633.360351562 765.599609375 -633.360351562 765.599609375 -639.16015625 759.799804688 c 0,48,49
 -655.400390625 740.080078125 -655.400390625 740.080078125 -677.440429688 740.080078125 c 0,0,1
-133.400390625 1064.87988281 m 0,50,51
 -133.400390625 1068.359375 -133.400390625 1068.359375 -129.919921875 1073 c 256,52,53
 -126.440429688 1077.63964844 -126.440429688 1077.63964844 -117.16015625 1102 c 1,54,-1
 -113.6796875 1117.08007812 l 2,55,56
 -112.51953125 1124.04003906 -112.51953125 1124.04003906 -106.719726562 1125.19970703 c 128,-1,57
 -100.919921875 1126.359375 -100.919921875 1126.359375 -69.0200195312 1126.359375 c 128,-1,58
 -37.1201171875 1126.359375 -37.1201171875 1126.359375 -31.8999023438 1124.61962891 c 128,-1,59
 -26.6796875 1122.87988281 -26.6796875 1122.87988281 -31.8999023438 1115.33984375 c 128,-1,60
 -37.1201171875 1107.79980469 -37.1201171875 1107.79980469 -41.1801757812 1093.29980469 c 128,-1,61
 -45.240234375 1078.79980469 -45.240234375 1078.79980469 -46.400390625 1075.89941406 c 128,-1,62
 -47.5595703125 1073 -47.5595703125 1073 -49.2998046875 1066.04003906 c 0,63,64
 -52.2003580958 1054.43945312 -52.2003580958 1054.43945312 -92.7998046875 1054.43945312 c 128,-1,65
 -133.400390625 1054.43945312 -133.400390625 1054.43945312 -133.400390625 1064.87988281 c 0,50,51
EndSplineSet
EndChar

StartChar: radical
Encoding: 8730 8730 42
Width: 46
VWidth: 1392
GlyphClass: 1
Flags: W
LayerCount: 2
Back
SplineSet
62 371 m 0,1,2
 62 374 62 374 65 378 c 256,3,4
 68 382 68 382 76 403 c 2,5,-1
 81 416 l 2,6,7
 82 422 82 422 88 423 c 0,8,9
 92 424 92 424 116 424 c 0,10,11
 145 424 145 424 149 423 c 0,12,13
 154 421 154 421 151 417 c 0,14,15
 145 408 145 408 139 385 c 2,16,-1
 135 373 l 2,17,18
 132 365 132 365 125 364 c 0,19,20
 115 362 115 362 97 362 c 0,21,0
 62 362 62 362 62 371 c 0,1,2
-201 281 m 0,23,24
 -234 281 -234 281 -287 337 c 0,25,26
 -311 365 -311 365 -322 379 c 0,27,28
 -338 398 -338 398 -338 402 c 0,29,30
 -338 413 -338 413 -162 413 c 0,31,32
 -72 413 -72 413 -24 411 c 0,33,34
 12 408 12 408 10 400 c 0,35,36
 6 388 6 388 -103 383 c 2,37,-1
 -211 378 l 1,38,-1
 -183 345 l 2,39,40
 -163 320 -163 320 -163 311 c 0,41,42
 -163 303 -163 303 -168 298 c 0,43,22
 -182 281 -182 281 -201 281 c 0,23,24
EndSplineSet
Fore
SplineSet
118.3203125 662.360351562 m 0,1,2
 118.3203125 665.83984375 118.3203125 665.83984375 121.799804688 670.48046875 c 256,3,4
 125.280273438 675.120117188 125.280273438 675.120117188 134.559570312 699.48046875 c 2,5,-1
 140.360351562 714.559570312 l 1,6,7
 141.51953125 721.51953125 141.51953125 721.51953125 147.319824219 722.6796875 c 128,-1,8
 153.120117188 723.83984375 153.120117188 723.83984375 183.859863281 723.83984375 c 128,-1,9
 214.599609375 723.83984375 214.599609375 723.83984375 219.819824219 722.100097656 c 128,-1,10
 225.040039062 720.360351562 225.040039062 720.360351562 219.819824219 712.8203125 c 128,-1,11
 214.599609375 705.280273438 214.599609375 705.280273438 207.639648438 678.599609375 c 1,12,-1
 203 664.6796875 l 2,13,14
 199.51953125 655.400390625 199.51953125 655.400390625 189.659667969 653.66015625 c 128,-1,15
 179.799804688 651.919921875 179.799804688 651.919921875 149.060058594 651.919921875 c 128,-1,0
 118.3203125 651.919921875 118.3203125 651.919921875 118.3203125 662.360351562 c 0,1,2
-186.759765625 557.959960938 m 0,16,17
 -237.797921212 557.959960938 -237.797921212 557.959960938 -327.120117188 671.639648438 c 0,18,19
 -345.6796875 693.6796875 -345.6796875 693.6796875 -345.6796875 698.3203125 c 0,20,21
 -345.6796875 711.080078125 -345.6796875 711.080078125 -191.399902344 711.080078125 c 128,-1,22
 -37.1201171875 711.080078125 -37.1201171875 711.080078125 18.5595703125 708.759765625 c 0,23,24
 60.3203125 705.280273438 60.3203125 705.280273438 58 696 c 0,25,26
 53.3603515625 682.080078125 53.3603515625 682.080078125 -73.080078125 676.280273438 c 2,27,-1
 -198.360351562 670.48046875 l 1,28,-1
 -165.879882812 632.200195312 l 1,29,30
 -142.6796875 603.200195312 -142.6796875 603.200195312 -142.6796875 593.340332031 c 128,-1,31
 -142.6796875 583.48046875 -142.6796875 583.48046875 -148.48046875 577.6796875 c 0,32,33
 -164.719726562 557.959960938 -164.719726562 557.959960938 -186.759765625 557.959960938 c 0,16,17
EndSplineSet
EndChar

StartChar: uni00B5
Encoding: 181 181 43
Width: 46
VWidth: 1392
GlyphClass: 1
Flags: W
LayerCount: 2
Back
SplineSet
-50 548 m 0,1,2
 -50 551 -50 551 -47 555 c 256,3,4
 -44 559 -44 559 -36 580 c 2,5,-1
 -31 593 l 2,6,7
 -30 599 -30 599 -24 600 c 0,8,9
 -20 601 -20 601 4 601 c 0,10,11
 33 601 33 601 37 600 c 0,12,13
 42 598 42 598 39 594 c 0,14,15
 33 585 33 585 27 562 c 2,16,-1
 23 550 l 2,17,18
 20 542 20 542 13 541 c 0,19,20
 3 539 3 539 -15 539 c 0,21,0
 -50 539 -50 539 -50 548 c 0,1,2
-313 458 m 0,23,24
 -346 458 -346 458 -399 514 c 0,25,26
 -423 542 -423 542 -434 556 c 0,27,28
 -450 575 -450 575 -450 579 c 0,29,30
 -450 590 -450 590 -274 590 c 0,31,32
 -184 590 -184 590 -136 588 c 0,33,34
 -100 585 -100 585 -102 577 c 0,35,36
 -106 565 -106 565 -215 560 c 2,37,-1
 -323 555 l 1,38,-1
 -295 522 l 2,39,40
 -275 497 -275 497 -275 488 c 0,41,42
 -275 480 -275 480 -280 475 c 0,43,22
 -294 458 -294 458 -313 458 c 0,23,24
EndSplineSet
Fore
SplineSet
-11.599609375 867.6796875 m 0,1,2
 -11.599609375 871.16015625 -11.599609375 871.16015625 -8.1201171875 875.799804688 c 256,3,4
 -4.6396484375 880.440429688 -4.6396484375 880.440429688 4.6396484375 904.799804688 c 2,5,-1
 10.4404296875 919.879882812 l 1,6,7
 11.599609375 926.83984375 11.599609375 926.83984375 17.3999023438 928 c 128,-1,8
 23.2001953125 929.16015625 23.2001953125 929.16015625 53.9399414062 929.16015625 c 128,-1,9
 84.6796875 929.16015625 84.6796875 929.16015625 89.8999023438 927.419921875 c 128,-1,10
 95.1201171875 925.6796875 95.1201171875 925.6796875 89.8999023438 918.139648438 c 128,-1,11
 84.6796875 910.599609375 84.6796875 910.599609375 77.7197265625 883.919921875 c 1,12,-1
 73.080078125 870 l 2,13,14
 69.599609375 860.719726562 69.599609375 860.719726562 59.7397460938 858.979980469 c 128,-1,15
 49.8798828125 857.240234375 49.8798828125 857.240234375 19.1401367188 857.240234375 c 128,-1,0
 -11.599609375 857.240234375 -11.599609375 857.240234375 -11.599609375 867.6796875 c 0,1,2
-316.6796875 763.280273438 m 0,16,17
 -367.723214235 763.280273438 -367.723214235 763.280273438 -457.040039062 876.959960938 c 0,18,19
 -475.599609375 899 -475.599609375 899 -475.599609375 903.639648438 c 0,20,21
 -475.599609375 916.400390625 -475.599609375 916.400390625 -321.319824219 916.400390625 c 128,-1,22
 -167.040039062 916.400390625 -167.040039062 916.400390625 -111.360351562 914.080078125 c 0,23,24
 -69.599609375 910.599609375 -69.599609375 910.599609375 -71.919921875 901.3203125 c 0,25,26
 -76.5595703125 887.400390625 -76.5595703125 887.400390625 -203 881.599609375 c 2,27,-1
 -328.280273438 875.799804688 l 1,28,-1
 -295.799804688 837.51953125 l 1,29,30
 -272.599609375 808.51953125 -272.599609375 808.51953125 -272.599609375 798.659667969 c 128,-1,31
 -272.599609375 788.799804688 -272.599609375 788.799804688 -278.400390625 783 c 0,32,33
 -294.639648438 763.280273438 -294.639648438 763.280273438 -316.6796875 763.280273438 c 0,16,17
EndSplineSet
EndChar

StartChar: registered
Encoding: 174 174 44
Width: 46
VWidth: 1392
GlyphClass: 1
Flags: W
LayerCount: 2
Back
Refer: 22 339 N 1 0 0 1 0 0 0
Fore
SplineSet
-677.440429688 473.280273438 m 0,0,1
 -728.48297986 473.280273438 -728.48297986 473.280273438 -817.799804688 586.959960938 c 0,2,3
 -836.360351562 609 -836.360351562 609 -836.360351562 613.639648438 c 0,4,5
 -836.360351562 626.400390625 -836.360351562 626.400390625 -655.400390625 626.400390625 c 0,6,7
 -597.400390625 626.400390625 -597.400390625 626.400390625 -580 625.240234375 c 1,8,9
 -611.3203125 647.280273438 -611.3203125 647.280273438 -654.240234375 689.040039062 c 128,-1,10
 -697.16015625 730.799804688 -697.16015625 730.799804688 -697.16015625 741.240234375 c 0,11,12
 -697.16015625 747.040039062 -697.16015625 747.040039062 -657.140136719 750.520019531 c 128,-1,13
 -617.120117188 754 -617.120117188 754 -540.560058594 754 c 128,-1,14
 -464 754 -464 754 -443.120117188 752.83984375 c 1,15,16
 -461.6796875 767.919921875 -461.6796875 767.919921875 -504.01953125 809.6796875 c 128,-1,17
 -546.360351562 851.440429688 -546.360351562 851.440429688 -546.360351562 857.8203125 c 128,-1,18
 -546.360351562 864.200195312 -546.360351562 864.200195312 -515.040039062 867.6796875 c 0,19,20
 -473.280273438 870 -473.280273438 870 -378.740234375 870 c 128,-1,21
 -284.200195312 870 -284.200195312 870 -228.51953125 867.6796875 c 0,22,23
 -189.080078125 864.200195312 -189.080078125 864.200195312 -189.080078125 856.080078125 c 256,24,25
 -189.080078125 847.959960938 -189.080078125 847.959960938 -214.020019531 844.479980469 c 128,-1,26
 -238.959960938 841 -238.959960938 841 -320.16015625 835.200195312 c 2,27,-1
 -399.040039062 829.400390625 l 1,28,-1
 -366.559570312 791.120117188 l 2,29,30
 -343.360351562 764.440429688 -343.360351562 764.440429688 -343.360351562 753.420410156 c 128,-1,31
 -343.360351562 742.400390625 -343.360351562 742.400390625 -352.060058594 733.120117188 c 128,-1,32
 -360.759765625 723.83984375 -360.759765625 723.83984375 -377.580078125 720.939941406 c 128,-1,33
 -394.400390625 718.040039062 -394.400390625 718.040039062 -435 718.040039062 c 1,34,-1
 -499.959960938 715.719726562 l 1,35,-1
 -549.83984375 713.400390625 l 1,36,-1
 -517.360351562 675.120117188 l 1,37,38
 -487.200195312 644.959960938 -487.200195312 644.959960938 -481.979980469 636.83984375 c 128,-1,39
 -476.759765625 628.719726562 -476.759765625 628.719726562 -476.759765625 619.440429688 c 0,40,41
 -476.759765625 604.360351562 -476.759765625 604.360351562 -499.959960938 600.880371094 c 128,-1,42
 -523.16015625 597.400390625 -523.16015625 597.400390625 -574.200195312 593.919921875 c 2,43,-1
 -689.040039062 585.799804688 l 1,44,-1
 -656.559570312 547.51953125 l 1,45,46
 -633.360351562 518.51953125 -633.360351562 518.51953125 -633.360351562 508.659667969 c 128,-1,47
 -633.360351562 498.799804688 -633.360351562 498.799804688 -639.16015625 493 c 0,48,49
 -655.400390625 473.280273438 -655.400390625 473.280273438 -677.440429688 473.280273438 c 0,0,1
-133.400390625 798.080078125 m 0,50,51
 -133.400390625 801.559570312 -133.400390625 801.559570312 -129.919921875 806.200195312 c 256,52,53
 -126.440429688 810.83984375 -126.440429688 810.83984375 -117.16015625 835.200195312 c 1,54,-1
 -113.6796875 850.280273438 l 2,55,56
 -112.51953125 857.240234375 -112.51953125 857.240234375 -106.719726562 858.399902344 c 128,-1,57
 -100.919921875 859.559570312 -100.919921875 859.559570312 -69.0200195312 859.559570312 c 128,-1,58
 -37.1201171875 859.559570312 -37.1201171875 859.559570312 -31.8999023438 857.819824219 c 128,-1,59
 -26.6796875 856.080078125 -26.6796875 856.080078125 -31.8999023438 848.540039062 c 128,-1,60
 -37.1201171875 841 -37.1201171875 841 -41.1801757812 826.5 c 128,-1,61
 -45.240234375 812 -45.240234375 812 -46.400390625 809.099609375 c 128,-1,62
 -47.5595703125 806.200195312 -47.5595703125 806.200195312 -49.2998046875 799.240234375 c 0,63,64
 -52.2003580958 787.639648438 -52.2003580958 787.639648438 -92.7998046875 787.639648438 c 128,-1,65
 -133.400390625 787.639648438 -133.400390625 787.639648438 -133.400390625 798.080078125 c 0,50,51
EndSplineSet
EndChar

StartChar: bar
Encoding: 124 124 45
Width: 46
VWidth: 1392
GlyphClass: 1
Flags: W
LayerCount: 2
Back
SplineSet
-339.5 598 m 128,-1,1
 -264 664 -264 664 -146 701 c 0,2,3
 -31 738 -31 738 110 738 c 0,4,5
 247 738 247 738 365 701 c 128,-1,6
 483 664 483 664 559 598 c 0,7,8
 635 531 635 531 653 448 c 1,9,10
 657 469 657 469 657 485 c 0,11,12
 657 572 657 572 582.5 649.5 c 128,-1,13
 508 727 508 727 381 774 c 0,14,15
 256 820 256 820 110 820 c 0,16,17
 -43 820 -43 820 -169.5 772 c 128,-1,18
 -296 724 -296 724 -368 646 c 0,19,20
 -438 570 -438 570 -438 486 c 0,21,22
 -438 463 -438 463 -434 448 c 1,23,0
 -415 532 -415 532 -339.5 598 c 128,-1,1
EndSplineSet
Fore
SplineSet
-347.419921875 925.6796875 m 128,-1,1
 -259.83984375 1002.24023438 -259.83984375 1002.24023438 -124.699707031 1045.16015625 c 0,2,3
 10.4404296875 1088.08007812 10.4404296875 1088.08007812 171.680175781 1088.08007812 c 0,4,5
 332.919921875 1088.08007812 332.919921875 1088.08007812 469.799804688 1045.16015625 c 128,-1,6
 606.6796875 1002.24023438 606.6796875 1002.24023438 694.83984375 925.100097656 c 0,7,8
 783 847.959960938 783 847.959960938 803.879882812 751.6796875 c 1,9,10
 808.51953125 776.040039062 808.51953125 776.040039062 808.51953125 794.599609375 c 0,11,12
 808.51953125 895.51953125 808.51953125 895.51953125 722.099609375 985.419921875 c 128,-1,13
 635.6796875 1075.3203125 635.6796875 1075.3203125 489.520019531 1129.26025391 c 0,14,15
 343.360351562 1183.20019531 343.360351562 1183.20019531 169.939941406 1183.20019531 c 0,16,17
 -3.48046875 1183.20019531 -3.48046875 1183.20019531 -150.219726562 1127.51953125 c 128,-1,18
 -296.959960938 1071.83984375 -296.959960938 1071.83984375 -379.319824219 982.520019531 c 0,19,20
 -461.6796875 893.200195312 -461.6796875 893.200195312 -461.6796875 795.759765625 c 0,21,22
 -461.6796875 769.080078125 -461.6796875 769.080078125 -457.040039062 751.6796875 c 1,23,0
 -435 849.120117188 -435 849.120117188 -347.419921875 925.6796875 c 128,-1,1
EndSplineSet
EndChar

StartChar: tilde
Encoding: 732 732 46
Width: 46
VWidth: 1392
GlyphClass: 1
Flags: W
LayerCount: 2
Back
SplineSet
62 -202 m 0,1,2
 62 -200 62 -200 65 -195 c 0,3,4
 68 -191 68 -191 76 -170 c 2,5,-1
 81 -157 l 2,6,7
 82 -151 82 -151 88 -150 c 0,8,9
 92 -149 92 -149 116 -149 c 0,10,11
 145 -149 145 -149 149 -150 c 0,12,13
 154 -152 154 -152 151 -156 c 0,14,15
 145 -165 145 -165 139 -188 c 2,16,-1
 135 -200 l 2,17,18
 132 -208 132 -208 125 -209 c 0,19,20
 115 -211 115 -211 97 -211 c 0,21,0
 62 -211 62 -211 62 -202 c 0,1,2
-201 -292 m 0,23,24
 -234 -292 -234 -292 -287 -236 c 0,25,26
 -311 -208 -311 -208 -322 -194 c 0,27,28
 -338 -175 -338 -175 -338 -171 c 0,29,30
 -338 -160 -338 -160 -162 -160 c 0,31,32
 -72 -160 -72 -160 -24 -162 c 0,33,34
 12 -165 12 -165 10 -173 c 0,35,36
 6 -185 6 -185 -103 -190 c 2,37,-1
 -211 -195 l 1,38,-1
 -183 -228 l 2,39,40
 -163 -253 -163 -253 -163 -262 c 0,41,42
 -163 -270 -163 -270 -168 -275 c 0,43,22
 -182 -292 -182 -292 -201 -292 c 0,23,24
EndSplineSet
Fore
SplineSet
118.3203125 -2.3203125 m 0,1,2
 118.3203125 0 118.3203125 0 121.800292969 5.22021484375 c 128,-1,3
 125.280273438 10.4404296875 125.280273438 10.4404296875 134.559570312 34.7998046875 c 2,4,-1
 140.360351562 49.8798828125 l 1,5,6
 141.51953125 56.83984375 141.51953125 56.83984375 147.319824219 58 c 128,-1,7
 153.120117188 59.16015625 153.120117188 59.16015625 183.859863281 59.16015625 c 128,-1,8
 214.599609375 59.16015625 214.599609375 59.16015625 219.819824219 57.419921875 c 128,-1,9
 225.040039062 55.6796875 225.040039062 55.6796875 219.819824219 48.1396484375 c 128,-1,10
 214.599609375 40.599609375 214.599609375 40.599609375 207.639648438 13.919921875 c 1,11,-1
 203 0 l 2,12,13
 199.51953125 -9.2802734375 199.51953125 -9.2802734375 189.659667969 -11.0200195312 c 128,-1,14
 179.799804688 -12.759765625 179.799804688 -12.759765625 149.060058594 -12.759765625 c 128,-1,0
 118.3203125 -12.759765625 118.3203125 -12.759765625 118.3203125 -2.3203125 c 0,1,2
-186.759765625 -106.719726562 m 0,15,16
 -237.80329236 -106.719726562 -237.80329236 -106.719726562 -327.120117188 6.9599609375 c 0,17,18
 -345.6796875 29 -345.6796875 29 -345.6796875 33.6396484375 c 0,19,20
 -345.6796875 46.400390625 -345.6796875 46.400390625 -191.399902344 46.400390625 c 128,-1,21
 -37.1201171875 46.400390625 -37.1201171875 46.400390625 18.5595703125 44.080078125 c 0,22,23
 60.3203125 40.599609375 60.3203125 40.599609375 58 31.3203125 c 0,24,25
 53.3603515625 17.400390625 53.3603515625 17.400390625 -73.080078125 11.599609375 c 2,26,-1
 -198.360351562 5.7998046875 l 1,27,-1
 -165.879882812 -32.48046875 l 1,28,29
 -142.6796875 -61.48046875 -142.6796875 -61.48046875 -142.6796875 -71.3403320312 c 128,-1,30
 -142.6796875 -81.2001953125 -142.6796875 -81.2001953125 -148.48046875 -87 c 0,31,32
 -164.719726562 -106.719726562 -164.719726562 -106.719726562 -186.759765625 -106.719726562 c 0,15,16
EndSplineSet
EndChar
